<?xml version="1.0" encoding="UTF-8"?>
<svg width="16px" height="16px" viewBox="0 0 16 16" version="1.1" xmlns="http://www.w3.org/2000/svg" xmlns:xlink="http://www.w3.org/1999/xlink">
    <!-- Generator: Sketch 59.1 (86144) - https://sketch.com -->
    <title>Icon/Alert</title>
    <desc>Created with Sketch.</desc>
    <g id="Icon/Alert" stroke="none" stroke-width="1" fill="none" fill-rule="evenodd">
        <path d="M9.5705415,0.885012635 C9.24658916,0.337361187 8.64794161,-3.01980663e-14 8.00008625,-3.01980663e-14 C7.35223089,-3.01980663e-14 6.75358334,0.337361187 6.42963101,0.885012635 L0.242973658,13.3447947 C-0.0809731686,13.8924588 -0.0809924275,14.5672189 0.242923136,15.1149005 C0.566838699,15.6625822 1.16547886,16 1.81334265,16 L14.1866573,16 C14.8345211,16 15.4331613,15.6625822 15.7570769,15.1149005 C16.0809924,14.5672189 16.0809732,13.8924588 15.7570263,13.3447947 L9.5705415,0.885012635 Z M14.3854829,14.5720486 C14.2358942,14.8381075 13.9561996,15.0016801 13.6539374,15 L2.34474648,15 C2.04293216,14.9998584 1.76405288,14.8367421 1.61315912,14.5719702 C1.46226535,14.3071984 1.4622813,13.9809958 1.61320094,13.7162391 L7.26779639,1.92783325 C7.41872478,1.66308552 7.69761383,1.5 7.99942483,1.5 C8.30123583,1.5 8.58012488,1.66308552 8.73105327,1.92783325 L14.3854829,13.7162341 C14.5381724,13.9805415 14.5381724,14.3077412 14.3854829,14.5720486 Z M9,13 C9,13.5522926 8.55227691,14 8,14 C7.44770741,14 7,13.5522769 7,13 C7,12.4477074 7.44772309,12 8,12 C8.2652247,12 8.51957941,12.1053547 8.70711507,12.2928923 C8.89465073,12.4804299 9,12.7347858 9,13 L9,13 Z" id="Shape" fill="#A0A0A0"></path>
        <path d="M7.5,10.5611964 L7.5,5.43880715 C7.5,5.19646065 7.72385763,5 8,5 C8.27614237,5 8.5,5.19646065 8.5,5.43880715 L8.5,10.5611929 C8.5,10.8035393 8.27614237,11 8,11 C7.72385763,11 7.5,10.8035393 7.5,10.5611929 L7.5,10.5611964 Z" id="Path" fill="#A0A0A0"></path>
    </g>
</svg>