<?xml version="1.0" encoding="UTF-8"?>
<svg width="23px" height="26px" viewBox="0 0 23 26" version="1.1" xmlns="http://www.w3.org/2000/svg" xmlns:xlink="http://www.w3.org/1999/xlink">
    <!-- Generator: Sketch 59.1 (86144) - https://sketch.com -->
    <title>Combined Shape</title>
    <desc>Created with Sketch.</desc>
    <g id="Headers" stroke="none" stroke-width="1" fill="none" fill-rule="evenodd">
        <g id="Headers-/-Logged-in" transform="translate(1.000000, -20.000000)" fill="#20527D" fill-rule="nonzero" stroke="#20527D" stroke-width="0.2">
            <g id="TopNav" transform="translate(0.000000, 21.000000)">
                <g id="Company">
                    <path d="M10.4749023,0.000693519642 C10.3651481,0.00546574519 10.25946,0.0441254639 10.172018,0.111485773 L0.210488261,7.74762874 C0.0772800479,7.85134197 -0.000509595618,8.01208926 3.9179002e-06,8.18227527 L3.9179002e-06,10.9094692 C3.9179002e-06,11.2106943 0.241241442,11.4548779 0.538612972,11.454908 L2.15399617,11.454908 L2.15399617,20.1819285 L0.538612972,20.1819285 C0.521795316,20.1811292 0.504949904,20.1811292 0.488132248,20.1819285 C0.210633319,20.2084209 -0.00104996846,20.4450293 3.9179002e-06,20.7273673 L3.9179002e-06,23.4545612 C3.9179002e-06,23.7557863 0.241241442,24 0.538612972,24 L20.4616724,24 C20.7590439,24 21.0000039,23.7557863 21.0000039,23.4545612 L21.0000039,20.7273673 C21.0000039,20.4261422 20.7590439,20.1819586 20.4616724,20.1819285 L18.8462892,20.1819285 L18.8462892,11.0912243 C18.8485695,10.9436087 18.7916851,10.8013604 18.6886278,10.6969676 C18.5855704,10.5925748 18.4451419,10.5349532 18.2994147,10.5372631 C18.1566049,10.5395202 18.0205298,10.5991526 17.9211259,10.7030412 C17.821722,10.8069298 17.7671325,10.946564 17.7693671,11.0912243 L17.7693671,20.1819285 L16.1539839,20.1819285 L16.1539839,11.454908 L20.4616724,11.454908 C20.7590439,11.4548779 21.0000039,11.2106943 21.0000039,10.9094692 L21.0000039,8.18227527 C21.000795,8.01208926 20.9230053,7.85134197 20.7897971,7.74762874 L10.8282674,0.111485773 C10.7270882,0.0334494923 10.6019102,-0.00579817826 10.4749023,0.000693519642 Z M10.5001427,1.23645326 L19.9232113,8.45499467 L19.9232113,10.3640304 L1.07707404,10.3640304 L1.07707404,8.45499467 L10.5001427,1.23645326 Z M3.2309183,11.454908 L4.84630149,11.454908 L4.84630149,20.1819285 L3.2309183,20.1819285 L3.2309183,11.454908 Z M5.92322362,11.454908 L8.61552895,11.454908 L8.61552895,20.1819285 L5.92322362,20.1819285 L5.92322362,11.454908 Z M9.69245108,11.454908 L11.3078343,11.454908 L11.3078343,20.1819285 L9.69245108,20.1819285 L9.69245108,11.454908 Z M12.3847564,11.454908 L15.0770617,11.454908 L15.0770617,20.1819285 L12.3847564,20.1819285 L12.3847564,11.454908 Z M1.07707404,21.2728061 L19.9232113,21.2728061 L19.9232113,22.9091224 L1.07707404,22.9091224 L1.07707404,21.2728061 Z" id="Combined-Shape"></path>
                </g>
            </g>
        </g>
    </g>
</svg>