<?xml version="1.0" encoding="UTF-8"?>
<svg width="24px" height="14px" viewBox="0 0 24 14" version="1.1" xmlns="http://www.w3.org/2000/svg" xmlns:xlink="http://www.w3.org/1999/xlink">
    <!-- Generator: Sketch 59.1 (86144) - https://sketch.com -->
    <title>Flags/China</title>
    <desc>Created with Sketch.</desc>
    <g id="Flags/China" stroke="none" stroke-width="1" fill="none" fill-rule="evenodd">
        <g id="Flag_China" fill-rule="nonzero">
            <rect id="Rectangle" fill="#CB1D23" x="0" y="0" width="24" height="14"></rect>
            <polygon id="Path" fill="#F7DE29" points="2.8 5 3.23636364 3.49056604 2 2.50943396 3.52727273 2.50943396 3.96363636 1 4.47272727 2.50943396 6 2.50943396 4.76363636 3.49056604 5.2 5 3.96363636 4.01886792"></polygon>
            <polygon id="Path" fill="#F7DE29" points="7.05263158 6.2 7.42105263 6.3 7.68421053 6 7.63157895 6.4 8 6.55 7.63157895 6.6 7.57894737 7 7.42105263 6.7 7 6.75 7.26315789 6.5"></polygon>
            <polygon id="Path" fill="#F7DE29" points="9 2.73684211 8.63157895 2.63157895 8.42105263 3 8.36842105 2.63157895 8 2.52631579 8.31578947 2.36842105 8.26315789 2 8.52631579 2.26315789 8.89473684 2.10526316 8.73684211 2.42105263"></polygon>
            <polygon id="Path" fill="#F7DE29" points="8.19047619 5 8.33333333 4.63157895 8 4.36842105 8.38095238 4.36842105 8.47619048 4 8.61904762 4.36842105 9 4.36842105 8.66666667 4.63157895 8.80952381 5 8.47619048 4.73684211"></polygon>
            <polygon id="Path" fill="#F7DE29" points="7.05263158 1.10526316 7.42105263 1.26315789 7.73684211 1 7.63157895 1.36842105 8 1.52631579 7.63157895 1.63157895 7.57894737 2 7.36842105 1.68421053 7 1.73684211 7.26315789 1.47368421"></polygon>
        </g>
    </g>
</svg>