<?xml version="1.0" encoding="UTF-8"?>
<svg width="17px" height="17px" viewBox="0 0 17 17" version="1.1" xmlns="http://www.w3.org/2000/svg" xmlns:xlink="http://www.w3.org/1999/xlink">
    <!-- Generator: Sketch 59.1 (86144) - https://sketch.com -->
    <title>Icon / X</title>
    <desc>Created with Sketch.</desc>
    <g id="Icon-/-X" stroke="none" stroke-width="1" fill="none" fill-rule="evenodd">
        <path d="M1.66070841,0.285628417 L8.498,7.123 L15.3385617,0.284655237 C15.7190698,-0.0948850789 16.3350841,-0.0948850789 16.714619,0.284655237 C17.095127,0.665168732 17.095127,1.28119186 16.714619,1.66073218 L9.875,8.499 L16.714619,15.3387812 C17.095127,15.7183216 17.095127,16.3343447 16.714619,16.7148582 C16.5248515,16.9046283 16.2757209,17 16.0265903,17 C15.7774597,17 15.5283292,16.9046283 15.3385617,16.7148582 L8.498,9.875 L1.66070841,16.713885 C1.47094097,16.9036552 1.22181038,16.9990268 0.972679785,16.9990268 C0.724522361,16.9990268 0.475391771,16.9036552 0.284651163,16.713885 C-0.0948837209,16.3343447 -0.0948837209,15.7183216 0.284651163,15.3378081 L7.122,8.499 L0.284651163,1.66170536 C-0.0948837209,1.28119186 -0.0948837209,0.665168732 0.284651163,0.285628417 C0.665159213,-0.0948850789 1.28117352,-0.0948850789 1.66070841,0.285628417 Z" id="Combined-Shape" fill="#A0A0A0"></path>
    </g>
</svg>