<?xml version="1.0" encoding="UTF-8"?>
<svg width="24px" height="24px" viewBox="0 0 24 24" version="1.1" xmlns="http://www.w3.org/2000/svg" xmlns:xlink="http://www.w3.org/1999/xlink">
    <!-- Generator: Sketch 59.1 (86144) - https://sketch.com -->
    <title>Icon/Arrow/Down</title>
    <desc>Created with Sketch.</desc>
    <g id="Icon/Arrow/Down" stroke="none" stroke-width="1" fill="none" fill-rule="evenodd">
        <g id="Arrow/Down" fill="#A0A0A0">
            <path d="M11.9993634,2.03804348 C9.33878481,2.03804348 6.83111303,3.07336957 4.95545609,4.9544837 C1.07162297,8.83797554 1.07162297,15.1589674 4.95545609,19.0455163 C6.84130682,20.9256114 9.33878481,21.9619565 11.9993634,21.9619565 C14.659942,21.9619565 17.1676138,20.9256114 19.0534645,19.0444973 C22.9372976,15.1599864 22.9372976,8.84001359 19.0534645,4.95652174 C17.1676138,3.07438859 14.659942,2.03804348 11.9993634,2.03804348 Z M11.9993634,24 C8.79851406,24 5.7811529,22.7516984 3.51813203,20.486413 C-1.17101032,15.8060462 -1.17101032,8.19191576 3.50793824,3.51358696 C5.7811529,1.24728261 8.78832028,-2.25597319e-13 11.9993634,-2.25597319e-13 C15.2104065,-2.25597319e-13 18.2277677,1.24830163 20.4907886,3.515625 C25.1697371,8.1939538 25.1697371,15.8060462 20.4907886,20.485394 C18.2277677,22.7516984 15.2104065,24 11.9993634,24 L11.9993634,24 Z" id="Fill-1192"></path>
            <path d="M12.04,15.84225 C11.78,15.84225 11.52,15.73625 11.34,15.54925 L6.5,10.70725 C6.1,10.31625 6.1,9.68325 6.5,9.29325 C6.89,8.90225 7.52,8.90225 7.91,9.29325 L12.04,13.42725 L16.18,9.29325 C16.57,8.90225 17.2,8.90225 17.59,9.29325 C17.98,9.68325 17.98,10.31625 17.59,10.70725 L12.75,15.54925 C12.56,15.73625 12.31,15.84225 12.04,15.84225" id="Fill-1193"></path>
        </g>
    </g>
</svg>