<?xml version="1.0" encoding="UTF-8"?>
<svg width="24px" height="24px" viewBox="0 0 24 24" version="1.1" xmlns="http://www.w3.org/2000/svg" xmlns:xlink="http://www.w3.org/1999/xlink">
    <!-- Generator: Sketch 59.1 (86144) - https://sketch.com -->
    <title>Icon/Download</title>
    <desc>Created with Sketch.</desc>
    <g id="Icon/Download" stroke="none" stroke-width="1" fill="none" fill-rule="evenodd">
        <g id="Download" transform="translate(4.000000, -1.000000)" fill="#A0A0A0">
            <g id="Group" transform="translate(0.000000, 0.229615)">
                <path d="M7.45561259,20.9178848 L1.33528859,15.1578848 C0.984540589,14.7675728 0.839748589,14.0191328 1.24528859,13.5828848 C1.64474459,13.1531888 2.41935659,13.1659688 2.82039659,13.5940448 L7.11811259,17.6440448 L7.11811259,1.8503848 C7.11811259,1.2539368 7.60166459,0.7703848 8.19814859,0.7703848 C8.79463259,0.7703848 9.27818459,1.2539368 9.27818459,1.8503848 L9.27818459,17.6440448 L13.5759006,13.5940448 C13.9450806,13.2255128 14.7469806,13.1574008 15.1509726,13.5828848 C15.5549286,14.0082608 15.4258686,14.7835928 15.0609366,15.1578848 L8.94068459,20.9178848 C8.73123659,21.1149848 8.48550059,21.2110328 8.19814859,21.2105048 C7.94074859,21.2003048 7.64320859,21.0943568 7.45561259,20.9178848 Z" id="Path"></path>
                <path d="M1.0800036,22.6203848 C0.4835196,22.6203848 0,23.1039368 0,23.7003848 C0,24.2968688 0.4835196,24.7803848 1.0800036,24.7803848 L15.4800036,24.7803848 C16.0764516,24.7803848 16.5600036,24.2968688 16.5600036,23.7003848 C16.5600036,23.1039368 16.0764516,22.6203848 15.4800036,22.6203848 L1.0800036,22.6203848 Z" id="Path"></path>
            </g>
        </g>
    </g>
</svg>