<?xml version="1.0" encoding="UTF-8"?>
<svg width="15px" height="10px" viewBox="0 0 15 10" version="1.1" xmlns="http://www.w3.org/2000/svg" xmlns:xlink="http://www.w3.org/1999/xlink">
    <!-- Generator: Sketch 59.1 (86144) - https://sketch.com -->
    <title>Icon/Email</title>
    <desc>Created with Sketch.</desc>
    <g id="Icon/Email" stroke="none" stroke-width="1" fill="none" fill-rule="evenodd">
        <path d="M-2.13162821e-14,1.41703399 L-2.13162821e-14,8.5775867 C-2.13162821e-14,9.35093126 0.614051495,10 1.37930985,10 L13.6206901,10 C14.385983,10 15,9.35093126 15,8.5775867 L15,1.41703399 C15,0.643672192 14.385983,0 13.6206901,0 L1.37930985,0 C0.614051495,0 -2.13162821e-14,0.643672192 -2.13162821e-14,1.41703399 Z M1.37930985,0.689654935 L13.5756115,0.689654935 C13.6767667,0.689654935 13.774646,0.714344581 13.8611804,0.754310085 L7.68858354,6.02910482 C7.42520432,6.27274266 7.07420444,6.27277715 6.81034246,6.02910482 L1.09913753,0.754310085 C1.18456854,0.715603202 1.27984437,0.689654935 1.37930985,0.689654935 Z M4.74677421,5.06465687 L0.775861784,8.92779347 C0.723465251,8.82429351 0.689654917,8.7069832 0.689654917,8.5775867 L0.689654917,1.41703399 C0.689654917,1.38534435 0.697068708,1.35579264 0.700516983,1.32543058 L4.74677421,5.06465687 Z M14.3409296,1.41698227 L14.3409296,8.57753497 C14.3409296,8.70422458 14.2229702,8.98751514 14.1725909,9.0895151 L10.1175527,5.05922584 L14.330171,1.3307754 C14.3333434,1.35943057 14.3409296,1.38713745 14.3409296,1.41698227 Z M9.48118479,5.41043899 L13.3550972,9.19816182 C13.3478559,9.19816182 13.3407869,9.19816182 13.3335455,9.19816182 L1.37930985,9.31029334 C1.37379261,9.31029334 1.3686202,9.31041403 1.36310296,9.31029334 L5.25318783,5.52796706 L6.34154952,6.53550119 C6.85318727,7.00805276 7.64575597,7.00870793 8.15729027,6.53550119 L9.48118479,5.41043899 Z" id="Email" fill="#A0A0A0"></path>
    </g>
</svg>