<?xml version="1.0" encoding="UTF-8"?>
<svg width="24px" height="14px" viewBox="0 0 24 14" version="1.1" xmlns="http://www.w3.org/2000/svg" xmlns:xlink="http://www.w3.org/1999/xlink">
    <!-- Generator: Sketch 59.1 (86144) - https://sketch.com -->
    <title>Flags/EU</title>
    <desc>Created with Sketch.</desc>
    <g id="Flags/EU" stroke="none" stroke-width="1" fill="none" fill-rule="evenodd">
        <g id="EU" fill-rule="nonzero">
            <rect id="Rectangle" fill="#213095" x="0" y="0" width="24" height="14"></rect>
            <g id="Group" transform="translate(7.000000, 2.000000)" fill="#F5CB27">
                <polygon id="Path" points="5.29375 0 5.0875 0.55 4.5375 0.55 5.01875 0.89375 4.88125 1.44375 5.29375 1.1 5.70625 1.44375 5.56875 0.89375 5.98125 0.55 5.43125 0.55"></polygon>
                <polygon id="Path" points="5.43125 9.69375 5.29375 9.2125 5.0875 9.69375 4.5375 9.69375 5.01875 10.0375 4.88125 10.5875 5.29375 10.24375 5.70625 10.5875 5.56875 10.0375 5.98125 9.69375"></polygon>
                <polygon id="Path" points="0.6875 5.6375 1.16875 5.98125 0.9625 5.43125 1.44375 5.15625 0.89375 5.15625 0.6875 4.60625 0.55 5.15625 -7.27418126e-13 5.15625 0.4125 5.43125 0.275 5.98125"></polygon>
                <polygon id="Path" points="3.025 0.61875 2.81875 1.16875 2.26875 1.16875 2.75 1.5125 2.54375 1.99375 3.025 1.71875 3.4375 1.99375 3.3 1.5125 3.7125 1.16875 3.1625 1.16875"></polygon>
                <polygon id="Path" points="1.30625 2.3375 1.16875 2.8875 0.61875 2.8875 1.03125 3.1625 0.89375 3.7125 1.30625 3.36875 1.7875 3.7125 1.58125 3.1625 2.0625 2.8875 1.5125 2.8875"></polygon>
                <polygon id="Path" points="1.5125 7.425 1.30625 6.875 1.16875 7.425 0.61875 7.425 1.03125 7.76875 0.89375 8.25 1.30625 7.975 1.7875 8.25 1.58125 7.76875 2.0625 7.425"></polygon>
                <polygon id="Path" points="3.1625 9.075 3.025 8.59375 2.81875 9.075 2.26875 9.075 2.75 9.41875 2.54375 9.96875 3.025 9.625 3.4375 9.96875 3.3 9.41875 3.7125 9.075"></polygon>
                <polygon id="Path" points="10.5875 5.15625 10.0375 5.15625 9.9 4.60625 9.69375 5.15625 9.14375 5.15625 9.55625 5.43125 9.41875 5.98125 9.9 5.6375 10.3125 5.98125 10.175 5.43125"></polygon>
                <polygon id="Path" points="7.5625 0.61875 7.425 1.16875 6.875 1.16875 7.2875 1.5125 7.15 1.99375 7.5625 1.71875 8.04375 1.99375 7.8375 1.5125 8.31875 1.16875 7.76875 1.16875"></polygon>
                <polygon id="Path" points="9.00625 3.1625 8.8 3.7125 9.28125 3.36875 9.69375 3.7125 9.4875 3.1625 9.96875 2.8875 9.41875 2.8875 9.28125 2.3375 9.075 2.8875 8.525 2.8875"></polygon>
                <polygon id="Path" points="9.41875 7.425 9.28125 6.875 9.075 7.425 8.525 7.425 9.00625 7.76875 8.8 8.25 9.28125 7.975 9.69375 8.25 9.4875 7.76875 9.96875 7.425"></polygon>
                <polygon id="Path" points="7.76875 9.075 7.5625 8.59375 7.425 9.075 6.875 9.075 7.2875 9.41875 7.15 9.96875 7.5625 9.625 8.04375 9.96875 7.8375 9.41875 8.31875 9.075"></polygon>
            </g>
        </g>
    </g>
</svg>