<?xml version="1.0" encoding="UTF-8"?>
<svg width="24px" height="24px" viewBox="0 0 24 24" version="1.1" xmlns="http://www.w3.org/2000/svg" xmlns:xlink="http://www.w3.org/1999/xlink">
    <!-- Generator: Sketch 59.1 (86144) - https://sketch.com -->
    <title>Icon/FAQ</title>
    <desc>Created with Sketch.</desc>
    <g id="Icon/FAQ" stroke="none" stroke-width="1" fill="none" fill-rule="evenodd">
        <g id="FAQ" fill="#A0A0A0">
            <path d="M11.64,17.457 C11.34,17.457 11.07,17.358 10.85,17.163 C10.62,16.966 10.51,16.692 10.51,16.34 C10.51,16.027 10.62,15.765 10.84,15.551 C11.06,15.338 11.32,15.231 11.64,15.231 C11.95,15.231 12.22,15.338 12.43,15.551 C12.64,15.765 12.75,16.027 12.75,16.34 C12.75,16.688 12.64,16.96 12.42,17.159 C12.19,17.357 11.93,17.457 11.64,17.457 Z M8.01,9.3 C8.01,8.829 8.16,8.352 8.46,7.868 C8.77,7.384 9.21,6.983 9.79,6.666 C10.37,6.349 11.05,6.189 11.82,6.189 C12.54,6.189 13.17,6.322 13.72,6.588 C14.27,6.853 14.7,7.214 15,7.67 C15.3,8.127 15.45,8.623 15.45,9.159 C15.45,9.581 15.37,9.95 15.19,10.268 C15.02,10.585 14.82,10.859 14.58,11.09 C14.35,11.321 13.92,11.709 13.32,12.254 C13.15,12.408 13.01,12.543 12.91,12.66 C12.81,12.777 12.73,12.883 12.68,12.98 C12.63,13.077 12.59,13.174 12.57,13.271 C12.54,13.367 12.5,13.537 12.44,13.78 C12.35,14.296 12.06,14.554 11.56,14.554 C11.3,14.554 11.08,14.47 10.91,14.301 C10.73,14.132 10.64,13.882 10.64,13.549 C10.64,13.133 10.71,12.772 10.84,12.467 C10.97,12.162 11.14,11.894 11.35,11.663 C11.56,11.432 11.85,11.158 12.21,10.841 C12.53,10.563 12.76,10.353 12.9,10.212 C13.04,10.07 13.16,9.913 13.26,9.739 C13.36,9.566 13.41,9.377 13.41,9.174 C13.41,8.777 13.26,8.442 12.96,8.169 C12.67,7.897 12.29,7.76 11.82,7.76 C11.27,7.76 10.87,7.897 10.61,8.173 C10.36,8.448 10.14,8.854 9.96,9.39 C9.79,9.95 9.47,10.23 9,10.23 C8.72,10.23 8.49,10.132 8.3,9.937 C8.1,9.741 8.01,9.528 8.01,9.3 L8.01,9.3 Z" id="Fill-1175"></path>
            <path d="M11.9987257,2.03804348 C9.33800573,2.03804348 6.84039503,3.07438859 4.95444409,4.9544837 C3.06849315,6.83661685 2.03886588,9.33831522 2.03886588,12 C2.03886588,14.6627038 3.06849315,17.1644022 4.95444409,19.0455163 C6.84039503,20.9266304 9.33800573,21.9619565 11.9987257,21.9619565 C14.6594457,21.9619565 17.1672507,20.9256114 19.0532017,19.0434783 C22.9372412,15.1599864 22.9372412,8.83899457 19.0532017,4.9544837 C17.1672507,3.07438859 14.66964,2.03804348 11.9987257,2.03804348 Z M11.9987257,24 C8.79770628,24 5.78018477,22.7527174 3.51704364,20.4874321 C1.24370819,18.2201087 -1.77635684e-15,15.2068614 -1.77635684e-15,12 C-1.77635684e-15,8.79415761 1.24370819,5.7798913 3.51704364,3.51358696 C5.78018477,1.24830163 8.79770628,-2.25597319e-13 11.9987257,-2.25597319e-13 C15.2099395,-2.25597319e-13 18.227461,1.24830163 20.4906021,3.51358696 C25.1697993,8.19293478 25.1697993,15.8060462 20.4906021,20.485394 C18.227461,22.7516984 15.2099395,24 11.9987257,24 L11.9987257,24 Z" id="Fill-1176"></path>
        </g>
    </g>
</svg>