<?xml version="1.0" encoding="UTF-8"?>
<svg width="16px" height="16px" viewBox="0 0 16 16" version="1.1" xmlns="http://www.w3.org/2000/svg" xmlns:xlink="http://www.w3.org/1999/xlink">
    <!-- Generator: Sketch 59.1 (86144) - https://sketch.com -->
    <title>Icon/Information</title>
    <desc>Created with Sketch.</desc>
    <g id="Icon/Information" stroke="none" stroke-width="1" fill="none" fill-rule="evenodd">
        <g id="noun_Information_544649" fill="#A0A0A0">
            <path d="M8,1.35714286 C11.6620879,1.35714286 14.6428571,4.33791209 14.6428571,8 C14.6428571,11.6620879 11.6620879,14.6428571 8,14.6428571 C4.33791209,14.6428571 1.35714286,11.6620879 1.35714286,8 C1.35714286,4.33791209 4.33791209,1.35714286 8,1.35714286 L8,1.35714286 Z M8,0.25 C3.71166667,0.25 0.25,3.71166667 0.25,8 C0.25,12.2883333 3.71166667,15.75 8,15.75 C12.2883333,15.75 15.75,12.2883333 15.75,8 C15.75,3.71166667 12.2883333,0.25 8,0.25 L8,0.25 Z M8.60714286,10.9965213 L8.60714286,6.53919295 C8.60714286,6.23365028 8.3672619,6 8.05357143,6 C7.73988095,6 7.5,6.23365028 7.5,6.53919295 L7.5,10.9965213 C7.5,11.302064 7.73988095,11.5357143 8.05357143,11.5357143 C8.3672619,11.5357143 8.60714286,11.2840909 8.60714286,10.9965213 Z M8.05357143,4 C7.74910714,4 7.5,4.24910714 7.5,4.55357143 C7.5,4.85803571 7.74910714,5.10714286 8.05357143,5.10714286 C8.35803571,5.10714286 8.60714286,4.85803571 8.60714286,4.55357143 C8.60714286,4.24910714 8.35803571,4 8.05357143,4 Z" id="Shape"></path>
        </g>
    </g>
</svg>