<?xml version="1.0" encoding="UTF-8"?>
<svg width="24px" height="24px" viewBox="0 0 24 24" version="1.1" xmlns="http://www.w3.org/2000/svg" xmlns:xlink="http://www.w3.org/1999/xlink">
    <!-- Generator: Sketch 59.1 (86144) - https://sketch.com -->
    <title>Icon/Arrow/Left</title>
    <desc>Created with Sketch.</desc>
    <g id="Icon/Arrow/Left" stroke="none" stroke-width="1" fill="none" fill-rule="evenodd">
        <g id="Arrow/Left" fill="#A0A0A0">
            <path d="M12.0012743,2.03804348 C9.34055432,2.03804348 6.83274928,3.07438859 4.94679834,4.9544837 C1.06275884,8.83899457 1.06275884,15.1599864 4.94679834,19.0434783 C6.83274928,20.9256114 9.34055432,21.9619565 12.0012743,21.9619565 C14.6619943,21.9619565 17.1697993,20.9266304 19.0455559,19.0455163 C20.9315068,17.1644022 21.9611341,14.6627038 21.9611341,12 C21.9611341,9.33831522 20.9315068,6.83661685 19.0455559,4.9544837 C17.159605,3.07438859 14.6619943,2.03804348 12.0012743,2.03804348 Z M12.0012743,24 L12.0012743,24 C8.79006053,24 5.77253903,22.7516984 3.5093979,20.485394 C-1.1697993,15.8060462 -1.1697993,8.19293478 3.5093979,3.51358696 C5.77253903,1.24830163 8.79006053,-2.25597319e-13 12.0012743,-2.25597319e-13 C15.2022937,-2.25597319e-13 18.2198152,1.24830163 20.4829564,3.51358696 C22.7562918,5.7798913 24,8.79415761 24,12 C24,15.2068614 22.7562918,18.2201087 20.4829564,20.4874321 C18.2198152,22.7527174 15.2124881,24 12.0012743,24 L12.0012743,24 Z" id="Fill-1186"></path>
            <path d="M14.1925,17.616 C13.9325,17.616 13.6825,17.519 13.4825,17.323 L8.6425,12.483 C8.4525,12.295 8.3525,12.041 8.3525,11.776 C8.3525,11.511 8.4525,11.256 8.6425,11.069 L13.4825,6.229 C13.8725,5.838 14.5025,5.838 14.9025,6.229 C15.2925,6.62 15.2925,7.253 14.9025,7.643 L10.7625,11.776 L14.9025,15.909 C15.2925,16.299 15.2925,16.933 14.9025,17.323 C14.7025,17.519 14.4425,17.616 14.1925,17.616" id="Fill-1187"></path>
        </g>
    </g>
</svg>