<?xml version="1.0" encoding="UTF-8"?>
<svg width="24px" height="24px" viewBox="0 0 24 24" version="1.1" xmlns="http://www.w3.org/2000/svg" xmlns:xlink="http://www.w3.org/1999/xlink">
    <!-- Generator: Sketch 59.1 (86144) - https://sketch.com -->
    <title>Icon/Minus</title>
    <desc>Created with Sketch.</desc>
    <g id="Icon/Minus" stroke="none" stroke-width="1" fill="none" fill-rule="evenodd">
        <path d="M12.0026758,-2.25597319e-13 C15.2092329,-2.25597319e-13 18.2241712,1.24857992 20.4899615,3.51437025 C25.1693333,8.19476126 25.1703525,15.8095699 20.4909808,20.4899609 C18.2231519,22.7567705 15.2082136,24.0053504 12.0006373,24.0053504 C8.79509949,24.0053504 5.78118046,22.7577897 3.51437087,20.4919994 C1.24654204,18.2241706 -0.00101862487,15.2102515 -3.99680289e-15,12.0026752 C-3.99680289e-15,8.79611812 1.24858054,5.78117983 3.51640937,3.51437025 C5.78321895,1.24857992 8.79713799,-2.25597319e-13 12.0026758,-2.25597319e-13 Z M12.0026758,2.03849783 C9.34141691,2.03849783 6.83916083,3.07507397 4.95762734,4.95558821 C3.07507459,6.83814096 2.03849845,9.34039704 2.03849845,12.0026752 C2.03849845,14.6659726 3.07405534,17.1682287 4.95558884,19.0497622 C6.83712233,20.9312957 9.33937841,21.9668526 12.0006373,21.9668526 C14.6629155,21.9668526 17.1672101,20.9302764 19.0497628,19.0477237 C22.9341204,15.1633661 22.9341204,8.84096507 19.0487436,4.95558821 C17.1672101,3.07507397 14.6639347,2.03849783 12.0026758,2.03849783 Z M15.7130006,10.776 C16.2650006,10.776 16.7130006,11.224 16.7130006,11.776 C16.7130006,12.329 16.2650006,12.776 15.7130006,12.776 L7.83800061,12.776 C7.28500061,12.776 6.83800061,12.329 6.83800061,11.776 C6.83800061,11.224 7.28500061,10.776 7.83800061,10.776 L15.7130006,10.776 Z" id="Combined-Shape" fill="#A0A0A0"></path>
    </g>
</svg>