<?xml version="1.0" encoding="UTF-8"?>
<svg width="3px" height="15px" viewBox="0 0 3 15" version="1.1" xmlns="http://www.w3.org/2000/svg" xmlns:xlink="http://www.w3.org/1999/xlink">
    <!-- Generator: Sketch 59.1 (86144) - https://sketch.com -->
    <title>Icon / More2</title>
    <desc>Created with Sketch.</desc>
    <g id="Icon-/-More2" stroke="none" stroke-width="1" fill="none" fill-rule="evenodd">
        <path d="M-4.5,6 C-3.67157288,6 -3,6.67157288 -3,7.5 C-3,8.32842712 -3.67157288,9 -4.5,9 C-5.32842712,9 -6,8.32842712 -6,7.5 C-6,6.67157288 -5.32842712,6 -4.5,6 Z M1.5,6 C2.32842712,6 3,6.67157288 3,7.5 C3,8.32842712 2.32842712,9 1.5,9 C0.671572875,9 0,8.32842712 0,7.5 C0,6.67157288 0.671572875,6 1.5,6 Z M7.5,6 C8.32842712,6 9,6.67157288 9,7.5 C9,8.32842712 8.32842712,9 7.5,9 C6.67157288,9 6,8.32842712 6,7.5 C6,6.67157288 6.67157288,6 7.5,6 Z" id="Combined-Shape" fill="#A0A0A0" transform="translate(1.500000, 7.500000) rotate(-270.000000) translate(-1.500000, -7.500000) "></path>
    </g>
</svg>