<?xml version="1.0" encoding="UTF-8"?>
<svg width="15px" height="3px" viewBox="0 0 15 3" version="1.1" xmlns="http://www.w3.org/2000/svg" xmlns:xlink="http://www.w3.org/1999/xlink">
    <!-- Generator: Sketch 59.1 (86144) - https://sketch.com -->
    <title>Icon / More</title>
    <desc>Created with Sketch.</desc>
    <g id="Icon-/-More" stroke="none" stroke-width="1" fill="none" fill-rule="evenodd">
        <path d="M1.5,0 C2.32842712,0 3,0.671572875 3,1.5 C3,2.32842712 2.32842712,3 1.5,3 C0.671572875,3 0,2.32842712 0,1.5 C0,0.671572875 0.671572875,0 1.5,0 Z M7.5,0 C8.32842712,0 9,0.671572875 9,1.5 C9,2.32842712 8.32842712,3 7.5,3 C6.67157288,3 6,2.32842712 6,1.5 C6,0.671572875 6.67157288,0 7.5,0 Z M13.5,0 C14.3284271,0 15,0.671572875 15,1.5 C15,2.32842712 14.3284271,3 13.5,3 C12.6715729,3 12,2.32842712 12,1.5 C12,0.671572875 12.6715729,0 13.5,0 Z" id="Combined-Shape" fill="#A0A0A0"></path>
    </g>
</svg>