<?xml version="1.0" encoding="UTF-8"?>
<svg width="28px" height="28px" viewBox="0 0 28 28" version="1.1" xmlns="http://www.w3.org/2000/svg" xmlns:xlink="http://www.w3.org/1999/xlink">
    <!-- Generator: Sketch 59.1 (86144) - https://sketch.com -->
    <title>Icon/Notification :active</title>
    <desc>Created with Sketch.</desc>
    <g id="Icon/Notification-:active" stroke="none" stroke-width="1" fill="none" fill-rule="evenodd">
        <path d="M12,4 C12.552,4 13,4.44577114 13,4.99502488 L13.000909,6.00759368 C17.9201793,6.20424039 21.6136909,10.2018876 22.0439565,15.8667493 C22.4822566,21.6936267 22.7436282,22.2132011 23.6101757,23.9361636 L23.8916528,24.5001549 C23.968974,24.6574593 24.0035145,24.8255069 23.9997187,24.9902319 C24.0026414,25.0689379 23.9961271,25.148759 23.9785116,25.2288303 C23.9073009,25.5562007 23.6678402,25.8102092 23.362931,25.9280188 L23.4483263,25.8884413 C23.4076927,25.9094614 23.3663561,25.9274313 23.3245777,25.9424181 C23.3181867,25.9441898 23.3119071,25.9462776 23.3056036,25.9483084 C23.2035452,25.9833219 23.0990531,26 22.9959524,26 C22.9827916,25.9999841 22.9794065,26 22.9760188,26 L22.939,25.996 L22.8743182,25.9923868 C22.8662693,25.9913768 22.8582356,25.9902673 22.8502187,25.989059 L22.7669099,25.9797061 C20.1881454,25.4760306 17.5961602,25.1542783 15.0005946,25.0143128 L15,25.0027576 C15,26.6563048 13.653184,28 11.9984957,28 C10.3488371,28 9.00655123,26.6628408 9.00002391,25.0148315 C6.40468418,25.154433 3.81250328,25.4762502 1.23381698,25.9797061 C1.17546395,25.9907291 1.11717954,25.9968797 1.05946611,25.9984482 C1.04143106,25.9994895 1.02327104,26 1.00507642,26 C0.85227485,26 0.697462729,25.9638467 0.550692796,25.8884413 L0.527921058,25.8763404 C0.275868679,25.7447477 0.0835535818,25.5153853 0.0211902819,25.2288303 C0.00380724919,25.1491041 -0.00261786075,25.069626 0.000949953066,24.9917952 C-0.00376852063,24.8267711 0.0307377457,24.6580974 0.108372449,24.5001549 L0.390854307,23.9361636 C1.25840535,22.2142341 1.51977646,21.6946596 1.95908099,15.8667493 C2.38643431,10.2015047 6.08033538,6.20370003 11.0000924,6.00755386 L11,4.99502488 C11,4.44577114 11.447,4 12,4 Z M11.2287385,24.9388446 L11.003954,24.9433668 C11.0051012,24.9630177 11.0056828,24.98282 11.0056828,25.0027576 C11.0056828,25.5502632 11.4509443,25.9944848 11.9984957,25.9944848 C12.5480528,25.9944848 12.9943172,25.5502632 12.9943172,25.0027576 L12.9984118,24.9424095 C12.4085399,24.9318433 11.8186111,24.9306556 11.2287385,24.9388446 Z M12.6194988,8.06590228 L11.3815096,8.06590228 C7.30311499,8.06590228 4.32247902,11.263919 3.96359638,16.0258238 C3.60210634,20.8297614 3.34313731,22.2931786 2.7178032,23.7493798 C8.88797765,22.7501813 15.1156456,22.7508494 21.2846676,23.7486288 C20.6601962,22.2931051 20.4009644,20.8312446 20.0384319,16.0258238 C19.677538,11.263919 16.6958909,8.06590228 12.6194988,8.06590228 Z" id="Combined-Shape" fill="#009FE3"></path>
        <text id="12" font-family="Cabin-Bold, Cabin" font-size="10" font-weight="bold" fill="#009FE3">
            <tspan x="7.51" y="20">12</tspan>
        </text>
        <circle id="Oval" fill="#F76060" cx="24" cy="4" r="4"></circle>
    </g>
</svg>