<?xml version="1.0" encoding="UTF-8"?>
<svg width="24px" height="24px" viewBox="0 0 24 24" version="1.1" xmlns="http://www.w3.org/2000/svg" xmlns:xlink="http://www.w3.org/1999/xlink">
    <!-- Generator: Sketch 59.1 (86144) - https://sketch.com -->
    <title>Icon/Participant</title>
    <desc>Created with Sketch.</desc>
    <g id="Icon/Participant" stroke="none" stroke-width="1" fill="none" fill-rule="evenodd">
        <path d="M14.271706,0 C14.7832038,0 15.284865,0.234688626 15.6881614,0.664951107 C16.5045905,1.55481215 16.8882138,3.14873906 16.7308299,5.05558415 C16.7111569,5.29027277 16.6718109,5.54451879 16.6324649,5.80854349 C16.6127919,5.96500257 16.5931189,6.12146166 16.5734459,6.27792074 C16.553773,6.4734946 16.5439365,6.66906845 16.5341,6.85486361 C16.9964152,7.03088008 18.2358137,7.23623263 20.3113142,7.23623263 L20.724447,7.23623263 C22.5441987,7.23623263 24,8.68347916 24,10.4729799 C24,11.1672671 23.7737606,11.8224395 23.3606278,12.379825 C23.3999738,12.6047349 23.4196468,12.8296449 23.3999738,13.0545548 C23.3704643,13.7977355 23.0360234,14.482244 22.4851797,14.990736 L22.4851797,15.0298507 C22.4359972,15.9783839 21.89499,16.8291302 21.0785609,17.3180648 L21.0097054,17.5234174 C20.6457551,18.4817293 19.652269,19 18.2063042,19 C17.9210458,19 17.6554604,18.9804426 17.4095481,18.9511065 C16.8193583,18.872877 15.9242372,18.8044261 14.8914052,18.7164179 L13.3569119,18.5795162 C12.4941723,18.5067442 11.8176525,18.505812 11.308146,18.5370634 L11.9645676,20.9063269 C12.0312587,21.1599067 12.0026768,21.4337728 11.8883493,21.6772094 C11.7644944,21.9105028 11.554894,22.082937 11.3167117,22.1640825 L5.59080849,23.9594272 C5.49553556,23.9898568 5.40978992,24 5.31451699,24 C4.90484338,24 4.52375166,23.7159907 4.40942414,23.2696903 L1.03676237,11.0978618 C0.893852971,10.5602727 1.17967176,10.0023972 1.6846183,9.84010614 L7.41052148,8.04476143 C7.64870381,7.96361591 7.91546802,7.99404548 8.13459576,8.12590695 C8.34837892,8.2545523 8.51682101,8.46043312 8.58683979,8.70587357 C9.73000703,7.57977877 11.0199342,6.08674319 11.5666698,5.13381369 C11.9798026,3.71590324 11.7830727,2.00463201 11.7830727,1.93618116 C11.7338902,1.50591868 11.8617646,1.08543489 12.1568595,0.762738034 C12.8257412,0.0195573855 14.1241586,0 14.271706,0 Z M7.06515581,11 L3,12.1789194 L3.01983003,12.2276351 L5.94475921,22 L10,20.8210806 L7.06515581,11 Z M14.1248097,2 C13.9863014,2.00972132 13.8181126,2.03888529 13.6796043,2.07777058 C13.7290715,2.75826312 13.7884323,4.38172391 13.3333333,5.83020091 L13.2541857,6.00518471 C12.5280149,7.33837114 10.6114463,9.46041588 9.15321671,10.760025 L10.762,16.566 L10.9817827,16.5467434 C11.2674562,16.5248704 11.569825,16.5139339 11.8888889,16.5139339 C12.3538813,16.5139339 12.8782344,16.5430979 13.4421613,16.5917045 L14.9855403,16.727803 C16.0540335,16.8152949 16.9939117,16.8930655 17.5974125,16.970836 C17.7656012,16.9902787 17.9535769,17 18.151446,17 C18.8143075,17 19.0814307,16.8347375 19.1111111,16.7958522 C19.1506849,16.7083603 19.1704718,16.6014258 19.1803653,16.4944913 C19.2298326,16.125081 19.4771689,15.8139987 19.8333333,15.6876215 C20.2092846,15.5612443 20.456621,15.2404407 20.4863014,14.8710305 L20.4665145,14.6668827 C20.3972603,14.2585872 20.5852359,13.860013 20.9414003,13.6558652 C21.218417,13.4906027 21.3866058,13.228127 21.4063927,12.926766 C21.4162861,12.7809462 21.3866058,12.6448477 21.3272451,12.5087492 C21.1590563,12.1198963 21.2480974,11.6824368 21.564688,11.4005185 C21.8417047,11.1477641 22,10.8172391 22,10.4672715 C22,9.76733636 21.4162861,9.19377835 20.7039574,9.19377835 L20.2686454,9.19377835 L20.2686454,9.19377835 C15.935312,9.19377835 15.1636225,8.41607259 14.9063927,8.16331821 C14.629376,7.88139987 14.4809741,7.51198963 14.4908676,7.14257939 C14.4908676,6.84121841 14.500761,6.49125081 14.5403349,6.10239793 C14.5601218,5.88852884 14.5898021,5.71354504 14.6194825,5.54828257 C14.6491629,5.32469216 14.6788432,5.11082307 14.6986301,4.91639663 C14.847032,3.0985094 14.3622527,2.18470512 14.1248097,2 Z" id="Combined-Shape" fill="#A0A0A0"></path>
    </g>
</svg>