<?xml version="1.0" encoding="UTF-8"?>
<svg width="8px" height="10px" viewBox="0 0 8 10" version="1.1" xmlns="http://www.w3.org/2000/svg" xmlns:xlink="http://www.w3.org/1999/xlink">
    <!-- Generator: Sketch 59.1 (86144) - https://sketch.com -->
    <title>Icon/Password</title>
    <desc>Created with Sketch.</desc>
    <g id="Icon/Password" stroke="none" stroke-width="1" fill="none" fill-rule="evenodd">
        <path d="M7.69230769,4.0625 L7.07692308,4.0625 L7.07692308,3.125 C7.07692308,1.401875 5.69661538,0 4,0 C2.30338462,0 0.923076923,1.401875 0.923076923,3.125 L0.923076923,4.0625 L0.307692308,4.0625 C0.137538462,4.0625 0,4.2025 0,4.375 L0,9.6875 C0,9.86 0.137538462,10 0.307692308,10 L7.69230769,10 C7.86246154,10 8,9.86 8,9.6875 L8,4.375 C8,4.2025 7.86246154,4.0625 7.69230769,4.0625 Z M1.5625,3.125 C1.5625,1.7465625 2.66163125,0.625 4.0125,0.625 C5.36336875,0.625 6.4625,1.7465625 6.4625,3.125 L6.4625,4.0625 L1.5625,4.0625 L1.5625,3.125 Z M7.5,9.375 L0.625,9.375 L0.625,4.6875 L7.5,4.6875 L7.5,9.375 Z M4.6875,6.875 C4.6875,7.105625 4.56125,7.305 4.375,7.4134375 L4.375,7.8125 C4.375,7.985 4.2353125,8.125 4.0625,8.125 C3.8896875,8.125 3.75,7.985 3.75,7.8125 L3.75,7.4134375 C3.5640625,7.3053125 3.4375,7.10625 3.4375,6.875 C3.4375,6.5296875 3.7171875,6.25 4.0625,6.25 C4.4078125,6.25 4.6875,6.5296875 4.6875,6.875 Z" id="Password" fill="#A0A0A0"></path>
    </g>
</svg>