<?xml version="1.0" encoding="UTF-8"?>
<svg width="24px" height="24px" viewBox="0 0 24 24" version="1.1" xmlns="http://www.w3.org/2000/svg" xmlns:xlink="http://www.w3.org/1999/xlink">
    <!-- Generator: Sketch 59.1 (86144) - https://sketch.com -->
    <title>Icon/Plus</title>
    <desc>Created with Sketch.</desc>
    <g id="Icon/Plus" stroke="none" stroke-width="1" fill="none" fill-rule="evenodd">
        <g id="Plus" fill="#A0A0A0">
            <path d="M11.7713751,16.714 C11.2183751,16.714 10.7713751,16.266 10.7713751,15.714 L10.7713751,7.839 C10.7713751,7.287 11.2183751,6.839 11.7713751,6.839 C12.3243751,6.839 12.7713751,7.287 12.7713751,7.839 L12.7713751,15.714 C12.7713751,16.266 12.3243751,16.714 11.7713751,16.714" id="Fill-1162"></path>
            <path d="M15.7083751,12.776 L7.83337509,12.776 C7.28137509,12.776 6.83337509,12.329 6.83337509,11.776 C6.83337509,11.224 7.28137509,10.776 7.83337509,10.776 L15.7083751,10.776 C16.2613751,10.776 16.7083751,11.224 16.7083751,11.776 C16.7083751,12.329 16.2613751,12.776 15.7083751,12.776" id="Fill-1163"></path>
            <path d="M12.0000638,2.03804348 C9.3383385,2.03804348 6.83564393,3.07438859 4.95378072,4.9544837 C1.06670357,8.83899457 1.06568414,15.1599864 4.95174186,19.0455163 C6.83360507,20.9266304 9.33629964,21.9619565 11.9980249,21.9619565 C14.6607696,21.9619565 17.1644836,20.9256114 19.0483857,19.0434783 C22.933424,15.1599864 22.933424,8.84001359 19.0483857,4.9544837 C17.165503,3.07438859 14.6628085,2.03804348 12.0000638,2.03804348 Z M11.9980249,24 C8.79090592,24 5.77645873,22.7527174 3.51027134,20.4874321 C-1.17093985,15.8070652 -1.16992042,8.19293478 3.5123102,3.51358696 C5.77849758,1.24830163 8.79294477,-2.25597319e-13 12.0000638,-2.25597319e-13 C15.2061633,-2.25597319e-13 18.2216299,1.24830163 20.4898562,3.51358696 C25.1700479,8.1939538 25.1700479,15.8070652 20.4898562,20.485394 C18.2206105,22.7516984 15.2051439,24 11.9980249,24 L11.9980249,24 Z" id="Fill-1164"></path>
        </g>
    </g>
</svg>