<?xml version="1.0" encoding="UTF-8"?>
<svg width="20px" height="16px" viewBox="0 0 20 16" version="1.1" xmlns="http://www.w3.org/2000/svg" xmlns:xlink="http://www.w3.org/1999/xlink">
    <!-- Generator: Sketch 59.1 (86144) - https://sketch.com -->
    <title>Icon/Refresh</title>
    <desc>Created with Sketch.</desc>
    <g id="Icon/Refresh" stroke="none" stroke-width="1" fill="none" fill-rule="evenodd">
        <g id="noun_Refresh_263673" fill="#A0A0A0">
            <path d="M11.2506335,14.7354905 C9.04221255,15.0464355 6.76618687,14.3623565 5.18874332,12.9112801 C3.85918376,11.6882299 3.1155318,10.0505864 3.1155318,8.30929464 C3.1155318,6.75456984 3.7014394,5.28276369 4.78311498,4.10117284 L5.27888295,6.87894782 C5.34648767,7.21062245 5.66197638,7.41791909 6,7.35573009 C6.33802362,7.2935411 6.5859076,6.98259614 6.51830288,6.65092152 L5.79718583,2.48425904 C5.79718583,2.48425904 5.79718583,2.48425904 5.79718583,2.48425904 C5.79718583,2.48425904 5.79718583,2.48425904 5.79718583,2.48425904 C5.77465092,2.3391514 5.68451129,2.21477341 5.54930184,2.13185475 C5.54930184,2.13185475 5.52676694,2.11112509 5.52676694,2.11112509 C5.52676694,2.11112509 5.50423203,2.11112509 5.50423203,2.09039543 C5.36902258,2.00747677 5.21127823,1.98674711 5.05353387,2.00747677 C5.05353387,2.00747677 5.05353387,2.00747677 5.05353387,2.00747677 C5.05353387,2.00747677 5.05353387,2.00747677 5.05353387,2.00747677 L0.546552313,2.77447434 C0.185993788,2.83666333 -0.0393552901,3.14760829 0.00571452547,3.45855325 C0.0733192489,3.76949821 0.388807958,3.99752452 0.749366483,3.93533553 L3.72397431,3.41709393 C2.50708929,4.78525175 1.83104206,6.4850842 1.83104206,8.28856498 C1.85357696,10.3615314 2.70990346,12.2893901 4.28734701,13.7404666 C5.86479055,15.1915431 8.00560679,16 10.2140278,16 C10.6196561,16 11.0252844,15.9792703 11.4534477,15.9170813 C11.8140062,15.875622 12.0393553,15.5646771 11.9942855,15.2537321 C11.9266808,14.9013278 11.611192,14.6733015 11.2506335,14.7354905 Z" id="Path"></path>
            <path d="M19.994722,12.5279443 C19.932282,12.2185185 19.6408952,11.9916063 19.3078818,12.0534914 L16.5605208,12.5692011 C17.7468812,11.1870992 18.3712814,9.45431474 18.3712814,7.63901673 C18.3712814,5.59680647 17.5595611,3.67836653 16.1026273,2.23437947 C14.37512,0.522223397 11.9191457,-0.282283675 9.50479815,0.089027281 C9.17178469,0.130284054 8.96365128,0.439709851 9.00527796,0.749135648 C9.04690464,1.07918983 9.35910476,1.2854737 9.67130487,1.24421692 C11.7110123,0.934791126 13.8131597,1.61552788 15.2700936,3.05951493 C16.4980807,4.27658973 17.184921,5.90623226 17.184921,7.63901673 C17.184921,9.22740248 16.6021474,10.7332747 15.5614804,11.9090927 L15.1035869,9.14488894 C15.0411469,8.81483476 14.7497601,8.60855089 14.43756,8.67043605 C14.1253599,8.73232121 13.8964131,9.04174701 13.9588531,9.37180119 L14.6456934,13.5181069 C14.6456934,13.5181069 14.6456934,13.5181069 14.6456934,13.5181069 C14.6456934,13.5181069 14.6456934,13.5181069 14.6456934,13.5181069 C14.6665067,13.6625056 14.7497601,13.7862759 14.8746401,13.8687894 C14.8746401,13.8687894 14.8954535,13.8894178 14.8954535,13.8894178 C14.8954535,13.8894178 14.9162668,13.8894178 14.9162668,13.9100462 C15.0411469,13.9925598 15.1868403,14.0131881 15.3325336,13.9925598 C15.3325336,13.9925598 15.3325336,13.9925598 15.3325336,13.9925598 C15.3325336,13.9925598 15.3325336,13.9925598 15.3325336,13.9925598 L19.4952019,13.2293095 C19.8282153,13.1674243 20.0363487,12.8579985 19.994722,12.5279443 Z" id="Path"></path>
        </g>
    </g>
</svg>