<?xml version="1.0" encoding="UTF-8"?>
<svg width="19px" height="24px" viewBox="0 0 19 24" version="1.1" xmlns="http://www.w3.org/2000/svg" xmlns:xlink="http://www.w3.org/1999/xlink">
    <!-- Generator: Sketch 59.1 (86144) - https://sketch.com -->
    <title>Icon / Report</title>
    <desc>Created with Sketch.</desc>
    <g id="Icon-/-Report" stroke="none" stroke-width="1" fill="none" fill-rule="evenodd">
        <path d="M12.9453368,0 C13.7289431,0 14.41367,0.394046016 14.7991293,0.988799811 L17.9511405,0.989690722 C18.5153192,0.989690722 18.97692,1.43505155 18.97692,1.97938144 L18.9771806,17.7728728 C18.9802507,17.8169979 18.9802523,17.8612827 18.9771855,17.905408 L18.977703,20.0814968 C19.0074854,20.2181784 19.0074322,20.3598903 18.9775434,20.4965539 L18.97692,23.0103093 C18.97692,23.5546392 18.5153192,24 17.9511405,24 L1.02577946,24 C0.461600756,24 0,23.5546392 0,23.0103093 L0,1.97938144 C0,1.43505155 0.461600756,0.989690722 1.02577946,0.989690722 L4.17734089,0.988799811 C4.56197453,0.394046016 5.24435984,0 6.02132542,0 L12.9453368,0 Z M16.925361,2.96907216 L14.9382927,2.97013527 C14.5966071,3.69865695 13.8346499,4.20618557 12.9453368,4.20618557 L6.02132542,4.20618557 C5.13954881,4.20618557 4.37959094,3.69865695 4.03843578,2.97013527 L2.05155891,2.96907216 L2.05155891,22.0206186 L12.083,22.02 L12.083682,17.8441237 C12.083682,17.5670103 12.3093535,17.3492784 12.5965717,17.3492784 L16.925,17.349 L16.925361,2.96907216 Z M15.981,18.338 L13.1094615,18.3389691 L13.109,21.11 L15.981,18.338 Z M8.5139695,15.9142268 C8.80118774,15.9142268 9.02685923,16.1319588 9.02685923,16.4090722 C9.02685923,16.6762887 8.80118774,16.9039175 8.5139695,16.9039175 L4.87245242,16.9039175 C4.58523417,16.9039175 4.35956269,16.6762887 4.35956269,16.4090722 C4.35956269,16.1319588 4.58523417,15.9142268 4.87245242,15.9142268 L8.5139695,15.9142268 Z M13.58132,13.3113402 C13.8582805,13.3113402 14.0942097,13.5290722 14.0942097,13.8061856 C14.0942097,14.0734021 13.8582805,14.3010309 13.58132,14.3010309 L4.87245242,14.3010309 C4.58523417,14.3010309 4.35956269,14.0734021 4.35956269,13.8061856 C4.35956269,13.5290722 4.58523417,13.3113402 4.87245242,13.3113402 L13.58132,13.3113402 Z M13.58132,10.6985567 C13.8582805,10.6985567 14.0942097,10.9261856 14.0942097,11.1934021 C14.0942097,11.4705155 13.8582805,11.6882474 13.58132,11.6882474 L4.87245242,11.6882474 C4.58523417,11.6882474 4.35956269,11.4705155 4.35956269,11.1934021 C4.35956269,10.9261856 4.58523417,10.6985567 4.87245242,10.6985567 L13.58132,10.6985567 Z M10.1141855,8.0956701 C10.4014037,8.0956701 10.6270752,8.31340206 10.6270752,8.59051546 C10.6270752,8.86762887 10.4014037,9.08536082 10.1141855,9.08536082 L4.87245242,9.08536082 C4.58523417,9.08536082 4.35956269,8.86762887 4.35956269,8.59051546 C4.35956269,8.31340206 4.58523417,8.0956701 4.87245242,8.0956701 L10.1141855,8.0956701 Z" id="Combined-Shape" fill="#A0A0A0"></path>
    </g>
</svg>