<?xml version="1.0" encoding="UTF-8"?>
<svg width="23px" height="23px" viewBox="0 0 23 23" version="1.1" xmlns="http://www.w3.org/2000/svg" xmlns:xlink="http://www.w3.org/1999/xlink">
    <!-- Generator: Sketch 59.1 (86144) - https://sketch.com -->
    <title>Icon / Require Approval</title>
    <desc>Created with Sketch.</desc>
    <g id="Icon-/-Require-Approval" stroke="none" stroke-width="1" fill="none" fill-rule="evenodd">
        <path d="M17.1523091,1.77635684e-15 C17.6995759,1.77635684e-15 18.1419416,0.459387483 18.1419416,1.02086107 L18.1419416,5.17576565 C18.1419416,5.73723924 17.6995759,6.19662672 17.1523091,6.19662672 C16.606032,6.19662672 16.1626767,5.73723924 16.1626767,5.17576565 L16.1626767,2.04172215 L1.97926484,2.04172215 L1.97926484,20.9582779 L10.719,20.958 L10.7196984,15.8539725 C10.7196984,15.5681314 10.9413761,15.3435419 11.2145146,15.3435419 L16.162,15.343 L16.1626767,11.0457168 C16.1626767,10.4842432 16.606032,10.0248557 17.1523091,10.0248557 C17.6995759,10.0248557 18.1419416,10.4842432 18.1419416,11.0457168 L18.1419416,15.8539725 C18.1419416,16.1193964 18.0380302,16.3848202 17.8519793,16.5787838 L11.9141847,22.7039503 C11.7291235,22.8877053 11.4777568,23 11.2145146,23 L0.989632422,23 C0.443355325,23 -5.5067062e-14,22.5406125 -5.5067062e-14,21.9791389 L-5.5067062e-14,1.02086107 C-5.5067062e-14,0.459387483 0.443355325,1.77635684e-15 0.989632422,1.77635684e-15 L17.1523091,1.77635684e-15 Z M15.261,16.364 L11.7093308,16.364403 L11.709,20.025 L15.261,16.364 Z M11.9765316,3.05237461 C12.3634779,3.45051043 12.3634779,4.10386152 11.9765316,4.50199734 L9.52,7.033 L20.0103676,7.0337328 C20.5566447,7.0337328 21,7.49312028 21,8.05459387 C21,8.61606747 20.5576343,9.07545495 20.0103676,9.07545495 L9.52,9.075 L11.9765316,11.6071904 C12.3634779,12.0053262 12.3634779,12.6586773 11.9765316,13.0568131 C11.7835533,13.2507767 11.5302074,13.3528628 11.2768615,13.3528628 C11.0235156,13.3528628 10.7701697,13.2507767 10.5771913,13.0568131 L6.43063148,8.77940524 C6.04467484,8.38126942 6.04467484,7.72791833 6.43063148,7.32978251 L10.5771913,3.05237461 C10.963148,2.65423879 11.5895853,2.65423879 11.9765316,3.05237461 Z" id="Combined-Shape" fill="#A0A0A0"></path>
    </g>
</svg>