<?xml version="1.0" encoding="UTF-8"?>
<svg width="24px" height="24px" viewBox="0 0 24 24" version="1.1" xmlns="http://www.w3.org/2000/svg" xmlns:xlink="http://www.w3.org/1999/xlink">
    <!-- Generator: Sketch 59.1 (86144) - https://sketch.com -->
    <title>Icon/Arrow/Right</title>
    <desc>Created with Sketch.</desc>
    <g id="Icon/Arrow/Right" stroke="none" stroke-width="1" fill="none" fill-rule="evenodd">
        <g id="Arrow/Right" fill="#A0A0A0">
            <path d="M11.9987257,2.03804348 C9.33800573,2.03804348 6.84039503,3.07438859 4.95444409,4.9544837 C3.06849315,6.83661685 2.03886588,9.33831522 2.03886588,12 C2.03886588,14.6627038 3.06849315,17.1644022 4.95444409,19.0455163 C6.84039503,20.9266304 9.33800573,21.9619565 11.9987257,21.9619565 C14.6594457,21.9619565 17.1672507,20.9256114 19.0532017,19.0434783 C22.9372412,15.1599864 22.9372412,8.83899457 19.0532017,4.9544837 C17.1672507,3.07438859 14.66964,2.03804348 11.9987257,2.03804348 Z M11.9987257,24 C8.79770628,24 5.78018477,22.7527174 3.51704364,20.4874321 C1.24370819,18.2201087 -1.77635684e-15,15.2068614 -1.77635684e-15,12 C-1.77635684e-15,8.79415761 1.24370819,5.7798913 3.51704364,3.51358696 C5.78018477,1.24830163 8.79770628,-2.25597319e-13 11.9987257,-2.25597319e-13 C15.2099395,-2.25597319e-13 18.227461,1.24830163 20.4906021,3.51358696 C25.1697993,8.19293478 25.1697993,15.8060462 20.4906021,20.485394 C18.227461,22.7516984 15.2099395,24 11.9987257,24 L11.9987257,24 Z" id="Fill-1188"></path>
            <path d="M9.8,17.616 C9.55,17.616 9.29,17.519 9.1,17.323 C8.7,16.933 8.7,16.299 9.1,15.909 L13.23,11.776 L9.1,7.643 C8.7,7.253 8.7,6.62 9.1,6.229 C9.49,5.838 10.12,5.838 10.51,6.229 L15.35,11.069 C15.54,11.256 15.64,11.511 15.64,11.776 C15.64,12.041 15.54,12.295 15.35,12.483 L10.51,17.323 C10.31,17.519 10.06,17.616 9.8,17.616" id="Fill-1189"></path>
        </g>
    </g>
</svg>