<?xml version="1.0" encoding="UTF-8"?>
<svg width="24px" height="23px" viewBox="0 0 24 23" version="1.1" xmlns="http://www.w3.org/2000/svg" xmlns:xlink="http://www.w3.org/1999/xlink">
    <!-- Generator: Sketch 59.1 (86144) - https://sketch.com -->
    <title>Icon / Search</title>
    <desc>Created with Sketch.</desc>
    <g id="Icon-/-Search" stroke="none" stroke-width="1" fill="none" fill-rule="evenodd">
        <path d="M9.969,0.639 C15.464,0.639 19.937,5.111 19.939,10.608 C19.939,13.0956727 19.0227141,15.3732182 17.5099005,17.1213417 L22.554,22.165 C22.945,22.555 22.945,23.188 22.554,23.579 C22.359,23.774 22.103,23.872 21.847,23.872 C21.591,23.872 21.335,23.774 21.14,23.579 L16.0574328,18.495915 C14.3715843,19.7995292 12.2582103,20.576 9.967,20.576 C4.474,20.576 0.002,16.105 -5.5067062e-14,10.611 C0.002,5.113 4.474,0.64 9.969,0.639 Z M9.969,2.639 C5.576,2.64 2.002,6.216 2,10.611 C2.002,15.002 5.575,18.576 9.967,18.576 C14.363,18.576 17.939,15.002 17.939,10.609 C17.937,6.214 14.362,2.639 9.969,2.639 Z M9.969,4 L9.969,5 C6.878,5 4.363,7.515 4.363,10.606 L3.363,10.606 C3.363,6.963 6.327,4 9.969,4 Z" id="Combined-Shape" fill="#A0A0A0"></path>
    </g>
</svg>