<?xml version="1.0" encoding="UTF-8"?>
<svg width="23px" height="23px" viewBox="0 0 23 23" version="1.1" xmlns="http://www.w3.org/2000/svg" xmlns:xlink="http://www.w3.org/1999/xlink">
    <!-- Generator: Sketch 59.1 (86144) - https://sketch.com -->
    <title>Icon / Sent</title>
    <desc>Created with Sketch.</desc>
    <g id="Icon-/-Sent" stroke="none" stroke-width="1" fill="none" fill-rule="evenodd">
        <path d="M22.0950624,0 C22.6405026,0 23.0813919,0.459387483 23.0813919,1.02086107 L23.0813919,1.02086107 L23.0813919,21.9791389 C23.0813919,22.5406125 22.6405026,23 22.0950624,23 L22.0950624,23 L11.9043063,23 C11.642929,23 11.3924013,22.8877053 11.2069714,22.7039503 L11.2069714,22.7039503 L5.28899454,16.5787838 C5.10455092,16.3848202 5,16.1193964 5,15.8539725 L5,15.8539725 L5,11.0457168 C5,10.4842432 5.44088927,10.0248557 5.98632947,10.0248557 C6.53176967,10.0248557 6.97265895,10.4842432 6.97265895,11.0457168 L6.97265895,11.0457168 L6.972,15.343 L12.0950624,15.3435419 C12.3370419,15.3435419 12.5384967,15.5209953 12.580277,15.7611848 L12.5882272,15.8539725 L12.588,20.958 L21.108733,20.9582779 L21.108733,2.04172215 L6.97265895,2.04172215 L6.97265895,5.17576565 C6.97265895,5.73723924 6.53176967,6.19662672 5.98632947,6.19662672 C5.44088927,6.19662672 5,5.73723924 5,5.17576565 L5,5.17576565 L5,1.02086107 C5,0.459387483 5.44088927,0 5.98632947,0 L5.98632947,0 Z M11.6018977,16.364403 L7.87,16.364 L11.601,20.223 L11.6018977,16.364403 Z M11.388022,3.05237461 L15.5207425,7.32978251 C15.905411,7.72791833 15.905411,8.38126942 15.5207425,8.77940524 L11.388022,13.0568131 C11.1956878,13.2507767 10.9431874,13.3528628 10.6906871,13.3528628 C10.4381867,13.3528628 10.1856864,13.2507767 9.99335214,13.0568131 C9.60769732,12.6586773 9.60769732,12.0053262 9.99335214,11.6071904 L12.44,9.075 L1.98632947,9.07545495 C1.4418756,9.07545495 1,8.61606747 1,8.05459387 C1,7.49312028 1.44088927,7.0337328 1.98632947,7.0337328 L12.44,7.033 L9.99335214,4.50199734 C9.60769732,4.10386152 9.60769732,3.45051043 9.99335214,3.05237461 C10.379007,2.65423879 11.0023672,2.65423879 11.388022,3.05237461 Z" id="Combined-Shape" fill="#A0A0A0"></path>
    </g>
</svg>