<?xml version="1.0" encoding="UTF-8"?>
<svg width="24px" height="24px" viewBox="0 0 24 24" version="1.1" xmlns="http://www.w3.org/2000/svg" xmlns:xlink="http://www.w3.org/1999/xlink">
    <!-- Generator: Sketch 59.1 (86144) - https://sketch.com -->
    <title>Icon/Settings</title>
    <desc>Created with Sketch.</desc>
    <g id="Icon/Settings" stroke="none" stroke-width="1" fill="none" fill-rule="evenodd">
        <path d="M12,9.56017021 C10.6621277,9.56017021 9.5693617,10.6549787 9.5693617,12 C9.5693617,13.3450213 10.6621277,14.4398298 12,14.4398298 C13.3480851,14.4398298 14.4408511,13.3450213 14.4408511,12 C14.4408511,10.6549787 13.3480851,9.56017021 12,9.56017021 Z M12,16.482383 C9.52851064,16.482383 7.52680851,14.4714894 7.52680851,12 C7.52680851,9.52851064 9.52851064,7.51761702 12,7.51761702 C14.4714894,7.51761702 16.4834043,9.52851064 16.4834043,12 C16.4834043,14.4714894 14.4714894,16.482383 12,16.482383 Z M10.9991489,21.9574468 L13.0110638,21.9574468 L13.0110638,20.5654468 C13.0110638,19.739234 13.6034043,18.9171064 14.3897872,18.653617 L15.0842553,18.3615319 C15.2885106,18.2604255 15.5846809,18.192 15.8910638,18.192 C16.452766,18.192 16.9838298,18.402383 17.3412766,18.7700426 L18.3319149,19.7545532 L19.7514894,18.3288511 L18.7710638,17.3443404 C18.1889362,16.7581277 18.0255319,15.7593191 18.3931915,15.0199149 L18.6791489,14.3182979 C18.9140426,13.6003404 19.7412766,13.0069787 20.5685106,13.0069787 L21.9574468,13.0069787 L21.9574468,10.9930213 L20.5685106,10.9930213 C19.7412766,10.9930213 18.9140426,10.3996596 18.6587234,9.6132766 L18.3625532,8.91574468 C18.0255319,8.2427234 18.1889362,7.24493617 18.7710638,6.6587234 L19.7514894,5.67217021 L18.3319149,4.24646809 L17.3412766,5.23097872 C16.7693617,5.80493617 15.7480851,5.97344681 15.0229787,5.60885106 L14.3182979,5.32187234 C13.6034043,5.08493617 13.0110638,4.26280851 13.0110638,3.43557447 L13.0110638,2.04255319 L10.9991489,2.04255319 L10.9991489,3.43557447 C10.9991489,4.26382979 10.4068085,5.08595745 9.62042553,5.34740426 L8.91574468,5.63948936 C8.72170213,5.73957447 8.41531915,5.80902128 8.10893617,5.80902128 C7.55744681,5.80902128 7.02638298,5.59761702 6.6587234,5.22995745 L5.67829787,4.24646809 L4.24851064,5.67217021 L5.23914894,6.65668085 C5.8212766,7.24493617 5.98468085,8.2427234 5.60680851,8.98110638 L5.33106383,9.68068085 C5.08595745,10.4017021 4.26893617,10.9930213 3.44170213,10.9930213 L2.04255319,10.9930213 L2.04255319,13.0069787 L3.44170213,13.0069787 C4.26893617,13.0069787 5.08595745,13.5982979 5.35148936,14.3826383 L5.64765957,15.0873191 C5.98468085,15.7593191 5.8212766,16.7581277 5.23914894,17.3433191 L4.24851064,18.3288511 L5.67829787,19.7545532 L6.6587234,18.7700426 C7.2306383,18.1981277 8.25191489,18.0255319 8.98723404,18.3921702 L9.68170213,18.6781277 C10.4170213,18.9201702 10.9991489,19.7249362 10.9991489,20.5654468 L10.9991489,21.9574468 Z M13.3174468,24 L10.692766,24 C9.73276596,24 8.95659574,23.220766 8.95659574,22.2628085 L8.95659574,20.5654468 L8.13957447,20.2498723 L6.90382979,21.4151489 C6.25021277,22.068766 5.09617021,22.068766 4.44255319,21.4151489 L2.59404255,19.5564255 C2.26723404,19.2326809 2.08340426,18.7955745 2.08340426,18.3288511 C2.08340426,17.8631489 2.26723404,17.4260426 2.59404255,17.099234 L3.78893617,15.9002553 L3.44170213,15.0954894 L1.73617021,15.0495319 C0.786382979,15.0495319 0,14.2713191 0,13.3133617 L0,10.6876596 C0,9.72970213 0.786382979,8.95046809 1.73617021,8.95046809 L3.44170213,8.95046809 L3.75829787,8.13753191 L2.59404255,6.89974468 C2.26723404,6.57497872 2.08340426,6.13787234 2.08340426,5.67217021 C2.08340426,5.20544681 2.26723404,4.76834043 2.59404255,4.44153191 L4.44255319,2.58587234 C5.09617021,1.93225532 6.25021277,1.93123404 6.90382979,2.58689362 L8.0987234,3.78689362 L8.90553191,3.43455319 L8.95659574,1.73719149 C8.95659574,0.779234043 9.73276596,0 10.692766,0 L13.3174468,0 C14.2774468,0 15.053617,0.779234043 15.053617,1.73719149 L15.053617,3.43557447 L15.8706383,3.75217021 L17.106383,2.58587234 C17.4331915,2.25804255 17.8723404,2.07829787 18.3319149,2.07829787 C18.7914894,2.07829787 19.2306383,2.25804255 19.5574468,2.58485106 L21.4161702,4.44459574 C21.7429787,4.76834043 21.9268085,5.20544681 21.9268085,5.67217021 C21.9268085,6.13787234 21.7429787,6.57497872 21.4161702,6.90178723 L20.2110638,8.10076596 L20.5685106,8.90144681 L22.2638298,8.95046809 C23.2238298,8.95046809 24,9.72970213 24,10.6876596 L24,13.3133617 C24,14.2713191 23.2238298,15.0495319 22.2638298,15.0495319 L20.5685106,15.0495319 L20.2519149,15.8655319 L21.4161702,17.1012766 C21.7429787,17.4260426 21.9268085,17.8631489 21.9268085,18.3288511 C21.9268085,18.7955745 21.7429787,19.2326809 21.4161702,19.5594894 L19.5574468,21.4141277 C18.9038298,22.0718298 17.76,22.068766 17.106383,21.4171915 L15.9012766,20.2141277 L15.1046809,20.5654468 L15.053617,22.2628085 C15.053617,23.220766 14.2774468,24 13.3174468,24 L13.3174468,24 Z" id="Settings" fill="#A0A0A0"></path>
    </g>
</svg>