<?xml version="1.0" encoding="UTF-8"?>
<svg width="21px" height="11px" viewBox="0 0 21 11" version="1.1" xmlns="http://www.w3.org/2000/svg" xmlns:xlink="http://www.w3.org/1999/xlink">
    <!-- Generator: Sketch 59.1 (86144) - https://sketch.com -->
    <title>Icon/ShowPassword</title>
    <desc>Created with Sketch.</desc>
    <g id="Icon/ShowPassword" stroke="none" stroke-width="1" fill="none" fill-rule="evenodd">
        <g id="ShowPassword" fill="#A0A0A0">
            <path d="M10.5,10.7 C14.325,10.7 17.975,8.925 20.8,5.675 C20.975,5.475 20.95,5.2 20.8,5.025 C17.975,1.775 14.325,2.30926389e-14 10.525,2.30926389e-14 C6.6,2.30926389e-14 2.925,1.775 0.15,5 C0.05,5.1 -2.22044605e-13,5.225 -2.22044605e-13,5.35 C-2.22044605e-13,5.475 0.05,5.6 0.15,5.7 C2.9,8.925 6.575,10.7 10.5,10.7 Z M10.5,1 C13.9,1 17.15,2.55 19.75,5.35 C17.175,8.15 13.9,9.7 10.5,9.7 C7,9.7 3.7,8.15 1.175,5.35 C3.7,2.55 7,1 10.5,1 Z" id="Shape"></path>
            <path d="M10.45,9.1 C12.525,9.1 14.2,7.425 14.2,5.35 C14.2,3.275 12.525,1.6 10.45,1.6 C8.375,1.6 6.7,3.275 6.7,5.35 C6.7,7.425 8.375,9.1 10.45,9.1 Z M10.45,2.6 C11.975,2.6 13.2,3.825 13.2,5.35 C13.2,6.875 11.975,8.1 10.45,8.1 C8.925,8.1 7.7,6.875 7.7,5.35 C7.7,3.825 8.925,2.6 10.45,2.6 Z" id="Shape"></path>
        </g>
    </g>
</svg>