<?xml version="1.0" encoding="UTF-8"?>
<svg width="24px" height="24px" viewBox="0 0 24 24" version="1.1" xmlns="http://www.w3.org/2000/svg" xmlns:xlink="http://www.w3.org/1999/xlink">
    <!-- Generator: Sketch 59.1 (86144) - https://sketch.com -->
    <title>Icon/Cross/Small</title>
    <desc>Created with Sketch.</desc>
    <g id="Icon/Cross/Small" stroke="none" stroke-width="1" fill="none" fill-rule="evenodd">
        <path d="M12.0035676,-2.25597319e-13 C15.2090714,-2.25597319e-13 18.2239777,1.24830163 20.4907632,3.51358696 C25.169066,8.19293478 25.1700853,15.8060462 20.4917824,20.485394 C18.2229585,22.7516984 15.2080522,24 12.0015291,24 C8.79500611,24 5.78111908,22.7527174 3.51433356,20.4874321 C1.24754805,18.2201087 -0.00101861456,15.2068614 2.44249065e-14,12 C2.44249065e-14,8.79415761 1.24958652,5.7798913 3.51637204,3.51358696 C5.78315755,1.24830163 8.79704459,-2.25597319e-13 12.0035676,-2.25597319e-13 Z M12.0035676,2.03804348 C9.34131773,2.03804348 6.83908822,3.07438859 4.9575747,4.9544837 C3.07606118,6.83661685 2.03847681,9.33831522 2.03847681,12 C2.03847681,14.6627038 3.07504194,17.1644022 4.95553622,19.0455163 C6.83704974,20.9266304 9.33927925,21.9619565 12.0015291,21.9619565 C14.663779,21.9619565 17.1670278,20.9256114 19.0505798,19.0434783 C22.9338769,15.1599864 22.9338769,8.83899457 19.0495605,4.9544837 C17.1670278,3.07438859 14.6647983,2.03804348 12.0035676,2.03804348 Z M10.1065,8.4925 L12.1839994,10.57 L14.2615,8.4925 C14.6515,8.1025 15.2845,8.1025 15.6755,8.4925 C16.0655,8.8835 16.0655,9.5165 15.6755,9.9065 L13.5979994,11.984 L15.6755,14.0615 C16.0655,14.4515 16.0655,15.0845 15.6755,15.4755 C15.4805,15.6705 15.2245,15.7685 14.9685,15.7685 C14.7125,15.7685 14.4565,15.6705 14.2615,15.4755 L12.1839994,13.398 L10.1065,15.4755 C9.9115,15.6705 9.6555,15.7685 9.3995,15.7685 C9.1435,15.7685 8.8885,15.6705 8.6925,15.4755 C8.3025,15.0845 8.3025,14.4515 8.6925,14.0615 L10.7699994,11.984 L8.6925,9.9065 C8.3025,9.5165 8.3025,8.8835 8.6925,8.4925 C9.0835,8.1025 9.7165,8.1025 10.1065,8.4925 Z" id="Combined-Shape" fill="#A0A0A0"></path>
    </g>
</svg>