<?xml version="1.0" encoding="UTF-8"?>
<svg width="24px" height="24px" viewBox="0 0 24 24" version="1.1" xmlns="http://www.w3.org/2000/svg" xmlns:xlink="http://www.w3.org/1999/xlink">
    <!-- Generator: Sketch 59.1 (86144) - https://sketch.com -->
    <title>Icon/TokenTrasnfer</title>
    <desc>Created with Sketch.</desc>
    <g id="Icon/TokenTrasnfer" stroke="none" stroke-width="1" fill="none" fill-rule="evenodd">
        <path d="M11.8476155,23.7608696 C10.4347762,23.7608696 9.02061927,23.5215714 7.67919944,23.0448592 C5.57324936,22.3048921 3.67628669,21.0039606 2.16883651,19.2701927 L1.0319239,19.9409813 C0.870637271,20.0360007 0.671927928,20.0360007 0.5106413,19.9409813 C0.349618212,19.8456927 0.25,19.6699203 0.25,19.4796122 L0.25,12.0325663 C0.25,11.8422583 0.349618212,11.6664859 0.5106413,11.5714664 C0.671927928,11.4761779 0.870373731,11.4761779 1.0319239,11.5714664 L7.34608457,15.2947202 C7.5073712,15.3897396 7.60646233,15.5655121 7.60646233,15.7558201 C7.60646233,15.9461281 7.5073712,16.1219006 7.34608457,16.21692 L6.26952268,16.8519081 C7.05750801,17.8850088 8.06238695,18.7345308 9.20193496,19.3283349 C10.734685,20.136942 12.6724964,20.3412472 14.9634517,19.9377512 C15.2472846,19.8876843 15.5168863,20.0817608 15.5656412,20.3719334 C15.6143961,20.6612985 15.4243836,20.9369355 15.1405508,20.9870024 C12.6203154,21.4314134 10.4624479,21.191846 8.72598128,20.2755681 C7.26596834,19.5156819 6.0030835,18.3778715 5.07594892,16.9859582 C4.99451499,16.8637519 4.96657972,16.7124745 4.99873163,16.5679266 C5.03114708,16.4233786 5.12075076,16.2998265 5.246723,16.2252645 L6.04287807,15.7558201 L1.2925652,12.9544969 L1.2925652,18.5574125 L2.02178105,18.1267295 C2.24183715,17.9972555 2.52118981,18.0481299 2.6835306,18.2478591 C4.11139163,20.0026228 5.95696395,21.3135139 8.01995697,22.0384071 C10.3852306,22.8795847 12.9926978,22.9143085 15.3653506,22.1390792 C17.6576236,21.3950745 19.6771325,19.8903761 21.0536032,17.9030436 C21.835,16.7873057 22.3960772,15.5431704 22.7226036,14.2026699 C22.7921782,13.9173424 23.0749569,13.743185 23.3545731,13.8147861 C23.6339257,13.8855796 23.8041727,14.1746755 23.7343346,14.4602721 C23.3756563,15.9310542 22.7594992,17.2968574 21.9032569,18.5202661 C20.3981786,20.6938689 18.1883937,22.3398851 15.6818624,23.154145 C14.4437504,23.5587178 13.1458147,23.7608696 11.8476155,23.7608696" id="Fill-439" fill="#A0A0A0"></path>
        <path d="M17.1758176,12.2201545 C17.1758176,11.5029175 15.9796248,10.9585239 14.3929716,10.9585239 C14.1162046,10.9594677 13.8398181,10.9784351 13.565692,11.0152973 L13.565692,9.26163065 C13.565692,8.54439363 12.3694992,8 10.782846,8 C9.19619284,8 8,8.53808548 8,9.26163065 L8,13.0339063 C8,13.7511433 9.19619284,14.295537 10.782846,14.295537 C11.0596839,14.2967124 11.3362888,14.2798524 11.6107786,14.2450718 L11.6107786,14.7383693 C11.6107786,15.4556064 12.8069714,16 14.3936246,16 C15.9802778,16 17.1764706,15.4587604 17.1764706,14.7383693 L17.1764706,12.2201545 L17.1758176,12.2201545 Z M13.8007517,11.3843242 C13.9959658,11.3645498 14.1921169,11.3546535 14.388401,11.3546759 C15.7530533,11.3546759 16.7690337,11.8113862 16.7690337,12.2201545 C16.7690337,12.6289229 15.7530533,13.0856332 14.3936246,13.0856332 C14.1977415,13.0856332 14.0149173,13.0761709 13.8379695,13.0591389 C12.7664889,12.956316 12.0182155,12.5708879 12.0182155,12.2201545 C12.019003,12.1731274 12.0310724,12.1269179 12.0534744,12.0851601 C12.2101809,11.7773222 12.8840188,11.4776849 13.8007517,11.3843242 L13.8007517,11.3843242 Z M13.8627814,14.3113074 C12.777589,14.2122694 12.0175625,13.8230563 12.0175625,13.4704305 L12.0175625,12.8926037 C12.4093287,13.1834096 13.0622724,13.3890554 13.8458048,13.4546602 C14.0220996,13.4691689 14.2049239,13.4773695 14.3936246,13.4773695 C15.4239697,13.4773695 16.2871613,13.2490143 16.7690337,12.8926037 L16.7690337,13.4704305 C16.7690337,13.8804605 15.7530533,14.3371708 14.3936246,14.3371708 C14.2101474,14.3352783 14.0325467,14.3264469 13.8627814,14.3081533 L13.8627814,14.3113074 Z M10.782846,8.39362876 C12.1422748,8.39362876 13.1582551,8.85033906 13.1582551,9.26163065 C13.1582551,9.67292224 12.1422748,10.1239552 10.782846,10.1239552 C9.42341724,10.1239552 8.40743686,9.66724491 8.40743686,9.26163065 C8.40743686,8.85601639 9.42602901,8.39362876 10.782846,8.39362876 Z M11.6107786,13.4748462 L11.6107786,13.8426116 C11.3366758,13.8816619 11.0599099,13.9006404 10.782846,13.899385 C9.42602901,13.899385 8.40743686,13.4439363 8.40743686,13.0357988 L8.40743686,12.4459864 C8.88800342,12.8023971 9.75250085,13.0339063 10.782846,13.0339063 C11.0596839,13.0350817 11.3362888,13.0182217 11.6107786,12.9834411 L11.6107786,13.4748462 Z M11.6107786,12.2226778 L11.6107786,12.5809809 C11.3367424,12.6208781 11.059976,12.6407001 10.782846,12.6402842 C9.42668196,12.6402842 8.40808981,12.1804132 8.40808981,11.7722757 L8.40808981,11.1849866 C8.88865636,11.5407664 9.7531538,11.7722757 10.7834989,11.7722757 C11.1460802,11.7735732 11.5080206,11.7427445 11.8647737,11.6801766 C11.708739,11.8211991 11.6171301,12.0163623 11.6101257,12.2226778 L11.6107786,12.2226778 Z M10.782846,11.3761236 C9.42341724,11.3761236 8.40743686,10.9187825 8.40743686,10.510645 L8.40743686,9.93281816 C8.88800342,10.288598 9.75250085,10.5169532 10.782846,10.5169532 C11.8131911,10.5169532 12.6763827,10.288598 13.1582551,9.93218735 L13.1582551,10.510645 C13.1582551,10.9187825 12.1422748,11.3761236 10.782846,11.3761236 Z M16.7703396,14.7345845 C16.7703396,15.1420912 15.7530533,15.5988014 14.3936246,15.5988014 C13.0341958,15.5988014 12.0182155,15.1420912 12.0182155,14.7333228 L12.0182155,14.1693739 L12.0443332,14.1636966 C12.5294704,14.5093834 13.3822148,14.7314304 14.3949305,14.7314304 C15.4252756,14.7314304 16.2884672,14.5030752 16.7703396,14.1466646 L16.7703396,14.7345845 Z" id="Shape" fill="#A0A0A0" transform="translate(12.588235, 12.000000) scale(-1, 1) translate(-12.588235, -12.000000) "></path>
        <path d="M23.2284578,12.42 C23.1385912,12.42 23.0487247,12.3961235 22.968082,12.3489072 L16.6539687,8.63812957 C16.4926833,8.54342856 16.3935929,8.36824509 16.3935929,8.17857477 C16.3935929,7.98890446 16.4926833,7.81372099 16.6539687,7.71901997 L17.7305225,7.08615962 C16.9425431,6.05652079 15.9376717,5.20930884 14.7981322,4.61749454 C13.2653937,3.8118652 11.3278604,3.60797632 9.03665868,4.01065685 C8.75230089,4.06109252 8.48322832,3.86659326 8.43447374,3.57792954 C8.38571916,3.28953408 8.57573025,3.01482065 8.85956096,2.96492152 C11.3797774,2.52199976 13.5376287,2.7604961 15.2740823,3.67343538 C16.7340843,4.43104353 17.9969597,5.56530955 18.9238238,6.9520222 C19.0052571,7.07381898 19.0331921,7.22512599 19.0010405,7.36865303 C18.9686253,7.51271662 18.8790223,7.63639132 18.7533145,7.7101669 L17.9569019,8.17803822 L22.7074426,10.9702428 L22.7074426,5.38610196 L21.9779687,5.81507343 C21.7576507,5.94411363 21.4788272,5.89340968 21.3162241,5.6948863 C19.8883738,3.94546607 18.0428153,2.63896759 15.9798378,1.91650345 C13.6145819,1.07868112 11.0066072,1.04300057 8.63449928,1.81616866 C6.34250699,2.55821687 4.32301327,4.05733667 2.94628938,6.03800982 C2.16516196,7.15054558 1.60408899,8.3905119 1.27703801,9.7265206 C1.20772744,10.0108919 0.9257415,10.1855389 0.645600325,10.1131046 C0.365986226,10.0420118 0.196004045,9.75442119 0.265578147,9.46978158 C0.624517263,8.00392785 1.24066973,6.64216476 2.09690555,5.42285561 C3.60197258,3.2573411 5.81147739,1.61603563 8.31798983,0.805040785 C10.9030367,-0.0373422143 13.7455604,0.000752813039 16.3205928,0.91396037 C18.4267906,1.65144791 20.323739,2.94802021 21.8311779,4.67597846 L22.968082,4.00743755 C23.1291038,3.91273654 23.3278117,3.91273654 23.4893607,4.00743755 C23.6503825,4.10240685 23.75,4.27759032 23.75,4.46726063 L23.75,11.8893524 C23.75,12.0790227 23.6503825,12.2542061 23.4893607,12.3489072 C23.4087179,12.3961235 23.3185879,12.42 23.2284578,12.42" id="Fill-440" fill="#A0A0A0"></path>
    </g>
</svg>