<?xml version="1.0" encoding="UTF-8"?>
<svg width="24px" height="24px" viewBox="0 0 24 24" version="1.1" xmlns="http://www.w3.org/2000/svg" xmlns:xlink="http://www.w3.org/1999/xlink">
    <!-- Generator: Sketch 59.1 (86144) - https://sketch.com -->
    <title>Icon/TokensTransfer</title>
    <desc>Created with Sketch.</desc>
    <g id="Icon/TokensTransfer" stroke="none" stroke-width="1" fill="none" fill-rule="evenodd">
        <g id="TokenTransfer" transform="translate(0.100000, 6.200000)" fill="#A0A0A0">
            <path d="M16.5608408,4.66398569 C15.8438823,4.66643054 15.1279098,4.71556529 14.4177926,4.81105579 L14.4177926,3.26822416 C14.4177926,1.41023873 11.3190835,1.13686838e-13 7.20889629,1.13686838e-13 C3.09870906,1.13686838e-13 0,1.39389761 0,3.26822416 L0,10.0402145 C0,11.8981999 3.09870906,13.3084387 7.20889629,13.3084387 C7.92603826,13.3114835 8.64257668,13.2678081 9.35363597,13.1777097 L9.35363597,14.4555853 C9.35363597,16.3135708 12.452345,17.7238095 16.5625323,17.7238095 C20.6727195,17.7238095 23.7714286,16.3217413 23.7714286,14.4555853 L23.7714286,7.93220988 C23.7697371,6.07422444 20.6710281,4.66398569 16.5608408,4.66398569 Z M15.0267092,5.76701136 C15.5324066,5.71578611 16.0405313,5.69015001 16.5490008,5.690208 C20.0841001,5.690208 22.7159731,6.87330525 22.7159731,7.93220988 C22.7159731,8.99111451 20.0841001,10.1742117 16.5625323,10.1742117 C16.0551018,10.1742117 15.5814999,10.1497 15.123121,10.105579 C12.3474761,9.8392187 10.4090915,8.84077621 10.4090915,7.93220988 C10.4111316,7.81038718 10.442397,7.69068261 10.500429,7.58250988 C10.9063734,6.78506318 12.6519344,6.00885995 15.0267092,5.76701136 L15.0267092,5.76701136 Z M15.1873955,13.3492915 C12.3762305,13.0927358 10.4074,12.0844887 10.4074,11.17102 L10.4074,9.67417337 C11.4222611,10.427499 13.1136962,10.9602196 15.1434182,11.1301672 C15.6001057,11.1677518 16.0737075,11.1889953 16.5625323,11.1889953 C19.2316168,11.1889953 21.467694,10.5974467 22.7159731,9.67417337 L22.7159731,11.17102 C22.7159731,12.2331929 20.0841001,13.4162901 16.5625323,13.4162901 C16.087239,13.4113877 15.6271687,13.3885102 15.1873955,13.3411209 L15.1873955,13.3492915 Z M7.20889629,1 C10.7304641,1 13.3623371,2.18309715 13.3623371,3.24853822 C13.3623371,4.3139793 10.7304641,5.48236946 7.20889629,5.48236946 C3.68732847,5.48236946 1.05545548,4.29927231 1.05545548,3.24853822 C1.05545548,2.19780414 3.6940942,1 7.20889629,1 Z M9.35363597,11.1824588 L9.35363597,12.1351462 C8.64357926,12.236305 7.92662384,12.2854684 7.20889629,12.2822163 C3.6940942,12.2822163 1.05545548,11.1023873 1.05545548,10.0451168 L1.05545548,8.517222 C2.30035171,9.44049532 4.53981174,10.0402145 7.20889629,10.0402145 C7.92603826,10.0432593 8.64257668,9.99958392 9.35363597,9.90948551 L9.35363597,11.1824588 Z M9.35363597,7.93874632 L9.35363597,8.86692199 C8.64375182,8.97027466 7.92679499,9.0216232 7.20889629,9.02054567 C3.69578565,9.02054567 1.05714693,7.82926082 1.05714693,6.77199029 L1.05714693,5.25063193 C2.30204315,6.17227116 4.54150318,6.77199029 7.21058774,6.77199029 C8.14984575,6.77535163 9.08744394,6.69549044 10.0116042,6.53340992 C9.60740019,6.89872521 9.3700895,7.40429099 9.35194454,7.93874632 L9.35363597,7.93874632 Z M22.719356,14.4457807 C22.719356,15.5014171 20.0841001,16.6845142 16.5625323,16.6845142 C13.0409645,16.6845142 10.4090915,15.5014171 10.4090915,14.4425124 L10.4090915,12.9816162 L10.4767489,12.9669092 C11.7334851,13.8624027 13.9424993,14.4376101 16.5659151,14.4376101 C19.2349997,14.4376101 21.4710769,13.8460615 22.719356,12.9227882 L22.719356,14.4457807 Z" id="Shape" transform="translate(11.885714, 8.861905) scale(-1, 1) translate(-11.885714, -8.861905) "></path>
        </g>
    </g>
</svg>