<?xml version="1.0" encoding="UTF-8"?>
<svg width="24px" height="24px" viewBox="0 0 24 24" version="1.1" xmlns="http://www.w3.org/2000/svg" xmlns:xlink="http://www.w3.org/1999/xlink">
    <!-- Generator: Sketch 59.1 (86144) - https://sketch.com -->
    <title>Icon/Icons/Training</title>
    <desc>Created with Sketch.</desc>
    <g id="Icon/Icons/Training" stroke="none" stroke-width="1" fill="none" fill-rule="evenodd">
        <path d="M20.027027,0 C20.5641081,0 21,0.436893204 21,0.970873786 C21,1.50485437 20.5641081,1.94174757 20.027027,1.94174757 L6.00648649,1.94174757 C5.42172973,1.94174757 4.94594595,2.41747573 4.94594595,3 C4.94594595,3.59223301 5.42172973,4.05825243 6.00648649,4.05825243 L18.5938378,4.05825243 C18.6999846,4.05825243 18.8021174,4.07525586 18.8976889,4.10665373 C20.0009217,4.32926341 21,5.63700902 21,6.72611465 L21,21.8312102 C21,23.0254777 20.0046486,24 18.7816216,24 L5.21545946,24 C3.99340541,24 3,23.0254777 3,21.8312102 L3,3.95541401 C3,3.83374496 3.02249103,3.71800481 3.06357135,3.61178892 C3.02159956,3.41523887 3,3.21018712 3,3 C3,1.34951456 4.34756757,0 6.00648649,0 L20.027027,0 Z M4.9449053,5.80779004 L4.94594595,21.8312102 C4.94594595,21.9745223 5.06464865,22.089172 5.21545946,22.089172 L18.7816216,22.089172 C18.9324324,22.089172 19.0540541,21.9745223 19.0540541,21.8312102 L19.0540541,6.72611465 C19.0540541,6.59525188 18.7808971,6.08585313 18.6186156,5.99833904 L18.5938378,6 L18.5938378,6 L12.9999099,5.99995987 C12.9999699,6.00467191 13,6.00939145 13,6.01411828 L13,15.9829009 C13,16.3277011 12.8406001,16.652219 12.5752461,16.8347603 C12.4205345,16.9463133 12.241444,16.9970192 12.0623535,16.9970192 C11.9338959,16.9970192 11.8054383,16.9665957 11.6854196,16.9158897 L10.0004688,16.1147363 L8.3145804,16.9158897 C8.02672293,17.0477251 7.69104548,17.0274428 7.42475387,16.8347603 C7.15939991,16.652219 7,16.3277011 7,15.9829009 L7,6.01411828 L7.001,6 L6.00648649,6 C5.6328901,6 5.27508457,5.93204884 4.9449053,5.80779004 Z M11.125,6 L8.87520291,5.99995987 C8.87526291,6.00467191 8.87529301,6.00939145 8.87529301,6.01411828 L8.87529301,14.4313 L9.62353493,14.0763586 C9.86357243,13.9648056 10.1364276,13.9648056 10.3764651,14.0763586 L11.124707,14.4313 L11.124707,6.01411828 L11.125,6 Z" id="Combined-Shape" fill="#A0A0A0"></path>
    </g>
</svg>