<?xml version="1.0" encoding="UTF-8"?>
<svg width="24px" height="24px" viewBox="0 0 24 24" version="1.1" xmlns="http://www.w3.org/2000/svg" xmlns:xlink="http://www.w3.org/1999/xlink">
    <!-- Generator: Sketch 59.1 (86144) - https://sketch.com -->
    <title>Icon/Tokens Transfer</title>
    <desc>Created with Sketch.</desc>
    <g id="Icon/Tokens-Transfer" stroke="none" stroke-width="1" fill="none" fill-rule="evenodd">
        <path d="M11.5685202,8.00434153 C11.0580371,8.00434153 10.6496506,7.64477346 10.6496506,7.20483135 C10.6496506,6.76065902 11.0580371,6.39686074 11.5685202,6.39686074 L15.1953813,6.39686074 L15.1953813,3.79951019 C15.1953813,3.35956807 15.6134913,3 16.1191127,3 C16.3767852,3 16.6101489,3.08460425 16.7705864,3.23266169 L23.7228806,9.28186575 C24.0923731,9.59490148 24.0923731,10.102527 23.7228806,10.4197929 L23.7034336,10.4324836 L16.7705864,16.468997 C16.4108174,16.7820327 15.8225463,16.7820327 15.4627773,16.468997 C15.2926162,16.3124791 15.1953813,16.1051987 15.1953813,15.8979183 L15.1953813,13.3005677 L7.8784564,13.3005677 C7.36311152,13.3005677 6.95472501,12.9409997 6.95472501,12.4968273 L6.95472501,11.0331738 L2.22424795,15.1491707 L6.95472501,19.2567071 L6.95472501,17.7972838 C6.95472501,17.3488812 7.36311152,16.9893131 7.8784564,16.9893131 L12.4241872,16.9893131 C12.9346703,16.9893131 13.3527803,17.3488812 13.3527803,17.7972838 C13.3527803,18.2372259 12.9346703,18.5967939 12.4241872,18.5967939 L8.79732604,18.5967939 L8.79732604,21.1941445 C8.79732604,21.4014249 8.70981465,21.6087053 8.52993011,21.7652232 C8.17016105,22.0782589 7.58189,22.0782589 7.22212094,21.7652232 L0.2698268,15.7160191 C-0.0899422668,15.3987532 -0.0899422668,14.8911277 0.2698268,14.578092 L7.22212094,8.52465769 C7.39228198,8.38506067 7.62078396,8.29199599 7.8784564,8.29199599 C8.38893953,8.29199599 8.79732604,8.65579428 8.79732604,9.09573639 L8.79732604,11.6930869 L16.1191127,11.6930869 C16.6295959,11.6930869 17.0379824,12.052655 17.0379824,12.4968273 L17.0379824,13.9604809 L21.7684594,9.85294445 L17.0379824,5.73694757 L17.0379824,7.20483135 C17.0379824,7.64477346 16.6295959,8.00434153 16.1191127,8.00434153 L11.5685202,8.00434153" id="Fill-2046" fill="#A0A0A0"></path>
    </g>
</svg>