<?xml version="1.0" encoding="UTF-8"?>
<svg width="24px" height="24px" viewBox="0 0 24 24" version="1.1" xmlns="http://www.w3.org/2000/svg" xmlns:xlink="http://www.w3.org/1999/xlink">
    <!-- Generator: Sketch 59.1 (86144) - https://sketch.com -->
    <title>Icon/Arrow/up</title>
    <desc>Created with Sketch.</desc>
    <g id="Icon/Arrow/up" stroke="none" stroke-width="1" fill="none" fill-rule="evenodd">
        <path d="M11.9987257,2.03804348 C9.33800573,2.03804348 6.8302007,3.07336957 4.95444409,4.9544837 C1.07040459,8.83899457 1.07040459,15.1589674 4.95444409,19.0424592 C6.8302007,20.9256114 9.33800573,21.9619565 11.9987257,21.9619565 C14.66964,21.9619565 17.1672507,20.9256114 19.0532017,19.0444973 C22.9372412,15.1610054 22.9372412,8.84001359 19.0532017,4.95346467 C17.1672507,3.07336957 14.6594457,2.03804348 11.9987257,2.03804348 Z M11.9987257,24 C8.79770628,24 5.78018477,22.7516984 3.51704364,20.484375 C-1.17234788,15.8060462 -1.17234788,8.19293478 3.51704364,3.51358696 C5.78018477,1.24728261 8.79770628,-2.25597319e-13 11.9987257,-2.25597319e-13 C15.2099395,-2.25597319e-13 18.2172666,1.24728261 20.4906021,3.51256793 C25.1697993,8.1939538 25.1697993,15.8080842 20.4906021,20.486413 C18.227461,22.7516984 15.2099395,24 11.9987257,24 L11.9987257,24 Z" id="Fill-1190" fill="#A0A0A0"></path>
        <path d="M16.8825,15.196 C16.6325,15.196 16.3725,15.099 16.1825,14.903 L12.0425,10.769 L7.9125,14.903 C7.5225,15.294 6.8825,15.294 6.4925,14.903 C6.1025,14.513 6.1025,13.88 6.4925,13.489 L11.3325,8.647 C11.7125,8.272 12.3725,8.272 12.7525,8.647 L17.5925,13.489 C17.9825,13.88 17.9825,14.513 17.5925,14.903 C17.3925,15.099 17.1425,15.196 16.8825,15.196" id="Fill-1191" fill="#A0A0A0"></path>
    </g>
</svg>