<?xml version="1.0" encoding="UTF-8"?>
<svg width="24px" height="24px" viewBox="0 0 24 24" version="1.1" xmlns="http://www.w3.org/2000/svg" xmlns:xlink="http://www.w3.org/1999/xlink">
    <!-- Generator: Sketch 59.1 (86144) - https://sketch.com -->
    <title>Icon/Users</title>
    <desc>Created with Sketch.</desc>
    <g id="Icon/Users" stroke="none" stroke-width="1" fill="none" fill-rule="evenodd">
        <path d="M17.0743528,14.0014142 C18.5748237,14.021773 20.048915,14.2762579 21.4565298,14.7648688 C22.9654421,15.3043768 24.0987092,16.9330801 23.9931908,18.3989131 L23.7346709,22.0533162 C23.6956291,22.5826448 23.2366243,23 22.6815978,23 L17.2716721,23 C16.6892108,23 16.2164886,22.5419272 16.2164886,21.9820604 C16.2164886,21.4221937 16.6892108,20.9641209 17.2716721,20.9641209 L21.6971116,20.9641209 L21.8870446,18.266581 C21.923976,17.7474318 21.400605,16.9127213 20.7368946,16.6785952 C19.5550891,16.2714194 18.3078622,16.0576521 17.0374213,16.0372933 C16.45496,16.0271139 15.9896241,15.5588617 16.000176,14.998995 C16.0107278,14.4391282 16.4876707,13.970876 17.0743528,14.0014142 Z M13.7647701,13.62 C15.3587701,14.21 16.5557701,15.99 16.4437701,17.6 L16.1607701,21.75 C16.1247701,22.27 15.6887701,22.68 15.1627701,22.68 L2.2877701,22.68 C1.7627701,22.68 1.3267701,22.27 1.2897701,21.75 L1.0067701,17.59 C0.898770101,15.99 2.0957701,14.21 3.6777701,13.62 C6.9417701,12.46 10.5247701,12.46 13.7647701,13.62 Z M4.3607701,15.5 C3.5597701,15.8 2.9587701,16.82 3.0027701,17.46 L3.2227701,20.68 L14.2287701,20.68 L14.4477701,17.46 C14.4927701,16.82 13.8937701,15.8 13.0817701,15.5 C10.2917701,14.5 7.1687701,14.5 4.3607701,15.5 Z M18.5,5 C20.4295618,5 22,6.79775281 22,8.99500624 C22,11.2022472 20.4295618,13 18.5,13 C16.5704382,13 15,11.2022472 15,8.99500624 C15,6.79775281 16.5704382,5 18.5,5 Z M9.00092102,3 C11.2058485,3 13,5.02059732 13,7.5046344 C13,9.97940268 11.2058485,12 9.00092102,12 C6.79415151,12 5,9.97940268 5,7.5046344 C5,5.02059732 6.79415151,3 9.00092102,3 Z M18.5,7 C17.6724782,7 17,7.89775561 17,8.99501247 C17,10.1022444 17.6724782,11 18.5,11 C19.3275218,11 20,10.1022444 20,8.99501247 C20,7.89775561 19.3275218,7 18.5,7 Z M9.00085361,5 C7.89799402,5 7,6.12084063 7,7.50437828 C7,8.87915937 7.89799402,10 9.00085361,10 C10.1037132,10 11,8.87915937 11,7.50437828 C11,6.12084063 10.1037132,5 9.00085361,5 Z" id="Combined-Shape" fill="#A0A0A0"></path>
    </g>
</svg>