<?xml version="1.0" encoding="UTF-8"?>
<svg width="24px" height="24px" viewBox="0 0 24 24" version="1.1" xmlns="http://www.w3.org/2000/svg" xmlns:xlink="http://www.w3.org/1999/xlink">
    <!-- Generator: Sketch 59.1 (86144) - https://sketch.com -->
    <title>Icon/Warning</title>
    <desc>Created with Sketch.</desc>
    <g id="Icon/Warning" stroke="none" stroke-width="1" fill="none" fill-rule="evenodd">
        <g id="Warning" fill="#A0A0A0">
            <path d="M12.04,20.35 C11.77,20.35 11.52,20.26 11.31,20.079 C11.11,19.9 11,19.648 11,19.324 C11,19.042 11.1,18.802 11.3,18.603 C11.5,18.405 11.74,18.306 12.03,18.306 C12.32,18.306 12.56,18.405 12.76,18.603 C12.97,18.802 13.07,19.042 13.07,19.324 C13.07,19.644 12.97,19.894 12.76,20.076 C12.56,20.259 12.32,20.35 12.04,20.35 Z M11.29,15.852 L11.07,12.577 C11.03,11.94 11,11.482 11,11.203 C11,10.825 11.1,10.53 11.3,10.318 C11.5,10.107 11.76,10 12.08,10 C12.48,10 12.74,10.136 12.87,10.407 C13,10.678 13.07,11.069 13.07,11.579 C13.07,11.88 13.05,12.186 13.02,12.495 L12.73,15.865 C12.7,16.267 12.63,16.574 12.52,16.788 C12.42,17.002 12.24,17.11 12,17.11 C11.76,17.11 11.59,17.006 11.49,16.798 C11.39,16.591 11.33,16.276 11.29,15.852 L11.29,15.852 Z" id="Fill-1051"></path>
            <path d="M2.5,22.2 L21.5,22.2 L12,3.2 L2.5,22.2 Z M23.101242,24 L0.907790741,24 C0.582611968,24 0.284531426,23.8027475 0.12194204,23.4836322 C-0.0406473466,23.1634842 -0.0406473466,22.7700119 0.12194204,22.4508967 L11.223184,0.479447486 C11.5393301,-0.159815829 12.4606699,-0.159815829 12.7858487,0.479447486 L23.878058,22.4508967 C24.0406473,22.7700119 24.0406473,23.1634842 23.878058,23.4836322 C23.7154686,23.8027475 23.417388,24 23.101242,24 L23.101242,24 Z" id="Fill-1052"></path>
        </g>
    </g>
</svg>